<mxfile host="app.diagrams.net" modified="2022-04-26T11:21:33.348Z" agent="5.0 (Windows NT 10.0; Win64; x64) AppleWebKit/537.36 (KHTML, like Gecko) Chrome/100.0.4896.127 Safari/537.36" etag="vtPikH4_gWpDJwwpQLK5" version="17.4.6" type="github">
  <diagram id="XYTEaQDV3CCzF-M_5A2S" name="Page-1">
    <mxGraphModel dx="2374" dy="1199" grid="1" gridSize="10" guides="1" tooltips="1" connect="1" arrows="1" fold="1" page="1" pageScale="1" pageWidth="1654" pageHeight="2336" math="0" shadow="0">
      <root>
        <mxCell id="0" />
        <mxCell id="1" parent="0" />
        <mxCell id="58xph6KQq2uh9m1sD0tC-1" value="«interface»&#xa;EPPStage" style="swimlane;fontStyle=0;childLayout=stackLayout;horizontal=1;startSize=26;fillColor=none;horizontalStack=0;resizeParent=1;resizeParentMax=0;resizeLast=0;collapsible=1;marginBottom=0;" parent="1" vertex="1">
          <mxGeometry x="947" y="189" width="160" height="52" as="geometry" />
        </mxCell>
        <mxCell id="58xph6KQq2uh9m1sD0tC-2" value="+ method: execute" style="text;strokeColor=none;fillColor=none;align=left;verticalAlign=top;spacingLeft=4;spacingRight=4;overflow=hidden;rotatable=0;points=[[0,0.5],[1,0.5]];portConstraint=eastwest;" parent="58xph6KQq2uh9m1sD0tC-1" vertex="1">
          <mxGeometry y="26" width="160" height="26" as="geometry" />
        </mxCell>
        <mxCell id="58xph6KQq2uh9m1sD0tC-3" value="" style="group" parent="1" vertex="1" connectable="0">
          <mxGeometry x="282" y="90" width="84.49" height="30" as="geometry" />
        </mxCell>
        <mxCell id="58xph6KQq2uh9m1sD0tC-4" value="" style="shape=stencil(jVbLctswDPwaXXdIgiTIc5r+R2bi1Jq6dsZx+vj7wlWlGogE9yZLC5pY7AIY6OFt//S6G1J4u5xPX3c/xufLfqBPQ0rjcb87jxd5GuhxoIeX03n35Xx6Pz5Pv1+frsjr07fT9+sJP6e4nlHyNSqFX9ObhlL+vPg84Q/j8RZPqKTwFYkdfEBkhS+ItI1vBUXj5Q+rg08oXeETet/Gc0UuCh/BcRtfO2pS+IDm8FMjQjf4ELbxJSHZ8z18pvnz/92HCDEaPj389bO+f0N36hsLWN8niqKcAneUqusV0LOTMKI+Xy5UnfOFf80nVbCTcLB85gJyChBBRs++oDO4ab8Qkmcwyw8HFEegUgCTMDPIq3BE1P/QCOxYLPHsqCWgzSJZ15wwoj0mXaM4ATmia5I6IzhJ54asc+gNnBybZVRtgxh8o300cu9zWusBjJRtEs3hlcXKJkDM5EiJhfZseY1ecyR0Q9PSjtcDhEUzDQq6w1JPttQtgL15UGy/Y3njlLpXdD1wxBDBEZMoIenC1TsdqYP0lYrf8ySgaloLITvqu9Ha0mV8baxF+LVeiSDfph/ToDwPuy1mjU3pTrGlc2h1SC/52w63im2nufRPL4eMpq+UloG6Jdim5ZTuyCkga0vEJat1D/G8UCwBde4M6wHZ0npnhMrOk8wO488UlqGiFR6jq3DZkljXIQYkr5dlBDNUzBopD/920JfxcJhW2NvvdmeVV9O+S4+/AQ==);fillColor=none;" parent="58xph6KQq2uh9m1sD0tC-3" vertex="1">
          <mxGeometry x="9.365518672199169" y="17.02838063439065" width="14.674315352697093" height="11.719532554257096" as="geometry" />
        </mxCell>
        <mxCell id="58xph6KQq2uh9m1sD0tC-5" value="" style="shape=stencil(lVfLctswDPwaXTEkwOc5Tf8jM3FqTV0747ivvy80KtWAlLeTmyxzAQJYLKBJHt6OT6+Hid3b7Xr5evg5P9+Ok3yamOfz8XCdb/o0yeMkDy+X6+HL9fL9/Lz+fn1aTi5P3y4/Fgu/VlwoVPKCYvd7fcOO3Prm8wo4zef3gNwDfCZ2AMBUkgUEqv4+QNRe50GoCgCovdQDEgOAoyIWwBTDfQAnEu4BvgKAp+I+4sEXcvEjMWgSuVpAbCb2AZ649IWL6T6gULI3UmZkEHMiZ3PEgTIqG2VbNa4kwL6m1N5fInlg35HY88E1Jt4572zJQqIKEqrZsPmJQgHwmoltvLGSB5QIFL05nyIxiFcb0xIiO6qgk5WR2SYoJ8qgk0eOFt9yth+xUth6KJESKIFyrnYeKiWkFdoFNkmVW2/vAyoFKy41wqCDkqzzkCkAmsaBd1WjAp0cY0+MqkEDYiRHvtMK52AhlDnB9y7+qsE+l1xfOQ2CQSFypBosQPUAqYtvU2MDCEXQbkod6Ty4psr7AG0v66Eov0FelTpdqQs3Gd8HhGZv66ACuaE5SVYjs2oGqINm3VtAUg8grXWY50lwDEqETsawLC3ktFeKgQoabW5QVu0RNAxHFyrFjABD1ME3Pu4Dcl85KSSAfXW7wAbQ4gN1VW6I7WrxOOiBfaqG/+F36Qa0bgCAfUr/YmNYZirqURn2pAp1pmilux0jwRmdx8UKrz15XKy2ObwvfamJ79bUkEqJydmYE0xqTG1p2epMBan9MB48BZChMPCol3p9+Lfdv8yn0/px8P7//mtAX61fEvL4Bw==);fillColor=none;" parent="58xph6KQq2uh9m1sD0tC-3" vertex="1">
          <mxGeometry x="54.390124481327796" y="16.026711185308848" width="13.322074688796679" height="13.973288814691152" as="geometry" />
        </mxCell>
        <mxCell id="58xph6KQq2uh9m1sD0tC-6" value="" style="shape=stencil(lVvZchs3EPwavaJwH8+O8x+ushyr4lguWbn+Po2osBQaZIP7JpHTuwDm6pkBH8KHn18//Xh88Pbn68vz749/P31+/foQfnnw/un718eXp1f89RA+PoQPX55fHn97ef7z++e3/3986pL9rz+e/+pP+OcNV0xqHeTtv28ftGhq+P+TX9/kvz19n+SdOyOfTYpn5JNp+Zx8PrX+ZNyp50eT/Tl5e2o9waRT6wnG1jPy3uRT+vLGhTPyzuRT63fGL/YQ7W15ayqdZzAlKXm2Z5xAUfKB1u9MqErezedf2ziBG/J2fn4tpngpb2f5NCzkTvlgXDsj74wV+lrkSzVVng/LZ9PiGfk0PrlTPhiv1zOff4F+5Xrc7O+5beyT7CEXE6W+wrz+DP1Ke4iz/2ZEDLlfsv8MD5X7LWWST80UsV9Yy7yeBHsW+138PWVpb87E+TxTNMEp+TLrK/lxAjfkKb8kRBixfj/ePuRjNUWsx5syx8+Ypb3Bemd7iME0Ea+CyfP5RCf3G41Lk3xoQ4O38t38/JBNFPaZhvcd8siAIj4jv8/2GaBxsd88rHfI+ybtoRg/P//CcG7IN3o+GIVYfzV51hc00sT5NOPn84eFRLH+xvYJD23K/i0bnNMByx357QBUE8QOnGdK48pw6luAOp+Ry4N1XQcgpM1ByKURJq8D4vCpAwAWoZaUOKzjnUWFicS8A4Cg9pA5EOEYVKLHIabEACs8oauJFKdDOwyBfB8Ar2ypDVM+AHa46/VgZwcXewdQbMU7dmcAnKKjfkSHg5/J9ARvpPzaRkK5Lh8XvivDF+TJP+soEK7Lw44iySt6hnhXZrvT6RVfU7wuo+C6Ll9NciQf1Pk3VthRAF5PT3ZEz4N/mCb0hehP/GMj78fXd8pDv/GMfBrHcad85vpzIw/1n9pv43yj5cEGlv1mYf/RD/ZzkffC/mPk/cLAhf2D/bRE8k4EudgWPmSSKucd23OQ5Uk6vr7Ie/X8PNz1yMeSTqRqIuV7mfqyHeHsCIiyXMp+VNcXeZVlclyyzDiw6/JQP6XiQaiuy9cRLi/yVpw/qqky60vTb1RrtH4r6RmqQfJfFFCqnQX+6knei/MshYmEleUqqmWKV/r51Q72f99+K+zBnTj/Gjk+a/upmfMjCiLhv727Mctr/6qVKYcu95rlekPHn+ZGtXxf/mqe6+eq6Xrg/uaG0PR2FzmwM1VouKXBzu+kri0vtC8NpdwCMO0rsmfWCge5Tc0BQCMr0l2YVpngw45U2Q1AobopycDSGjeyoWllqQBQJwZcR5peY1MKQdtS4z2AXSi+DgAnM92MdHZpn8VgnKq0riB0QwOLoooaOb2IkNR3MZtf0jGjNc6ZyNKqh7BqYtPkWnWddTEHgCfamEbVfAtAeTNvfK6aSsSxyUZ79wjqlIJaKD3UJVRuWht1OP273q30ucrJFum0Kj2AXVD10SQdRKChU6q6vQRAnhW36Z+vsa8m7Q9l+PABKLJj3cPxMmJQnAEA6rcg6ynSCQAPnfxod9wCUA5CGssqMuVlDJYHcbqV5ep8rP2g1RsSE8NuXepYE1cWrWrzjsMhD0AzQWXqwLVODzzK+AIPD9omVHqOS+/i8538Z4tYejqbRcE6qYTcbBsAG84cbK2L+ekmfC2L6uqYA90CWHpDlsESvJjmArAvFWgQJaiQ3wwya+RKD9pXkxMAiNF0zaglBSZZm9kkig0qtjfDSQRfCjR4hJpuoPyhdlbVJAv5gOqNzXwSX9PAupd0qgIt3IFElpMlZWYuUI4m1HVA5Bqu+NE1vLPI3aT2sky9LnX1dYBlawVAxW+QEU99Sz23yJWttb9TdRrKIKr3AjKHmR1gyRA7QBy18L2AsBzrBuC5XbIDOJ5b7PRgma5vNA3qTBO8jS2ltrA+Pw76zh7axh9SYfKwYa4AePIHfesABQa/Ics+Wq9I6JTqSDG3ADQo7KFNbTrzTaAN1U2JW1EbqgtAoTck2dsAIC+XXdRICwDqnmyoLgDrdR0VvQGwxAQ01U1Hv/kd1VW9jbWj3JJ0UQCo9NtwjeS4e7JhM2nJohu+tHbde3tEGF8sC5vRFC5mbiNsSGKMTFw3NDQGrrN2TDc67rVuEZaneTtEaMtYeIeoS4d/j6A7TlvEcktii8jLiH6HSNxV3GgcAL+QdmW1IY4A+a5mVIkFAK4jNGkPYalKdbsMAGIEKKfU9S4AqPDYcPDglxgbZS8LAJpggYPLEe4ykt1kIgCojN20dYK9QqnlJaylRQjOrGzJVw6Zm2uCfcxONEiTlH6xeWHIqg/kE1eMxUrj61eJT3X8+t1gywCVuvqssTHAqVOy3JoCjVf1XJ+OtTMA1/iSyw5Q+cLEZg8A8IR8c2Gq8MRmo4f1KhA07fXdIb7Uqll+vx5FZFEbn4uLA+mKcb1hBX/IatOBO68bjwMgZgYo0u7CUgDqINAvYNEedOUOQCDSnuX02y0MYtNM6De2SA966tRvbNEp6fuPznLKqnbs6haAzBt1hLoyAgAXHrqps1Cgqq+ItmVBmw47j6hrlvfiFoJV65iY3pBfixTZV1uuoOmfFCz0bUMyCvvypuDY/8QHf1x+H/Tl6du3t58Xvf+ef0+Ej95+ixQ+/gc=);fillColor=none;" parent="58xph6KQq2uh9m1sD0tC-3" vertex="1">
          <mxGeometry width="84.49" height="23.23873121869783" as="geometry" />
        </mxCell>
        <mxCell id="58xph6KQq2uh9m1sD0tC-7" value="" style="group" parent="1" vertex="1" connectable="0">
          <mxGeometry x="282" y="130" width="84.49" height="30" as="geometry" />
        </mxCell>
        <mxCell id="58xph6KQq2uh9m1sD0tC-8" value="" style="shape=stencil(jVbLctswDPwaXXdIgiTIc5r+R2bi1Jq6dsZx+vj7wlWlGogE9yZLC5pY7AIY6OFt//S6G1J4u5xPX3c/xufLfqBPQ0rjcb87jxd5GuhxoIeX03n35Xx6Pz5Pv1+frsjr07fT9+sJP6e4nlHyNSqFX9ObhlL+vPg84Q/j8RZPqKTwFYkdfEBkhS+ItI1vBUXj5Q+rg08oXeETet/Gc0UuCh/BcRtfO2pS+IDm8FMjQjf4ELbxJSHZ8z18pvnz/92HCDEaPj389bO+f0N36hsLWN8niqKcAneUqusV0LOTMKI+Xy5UnfOFf80nVbCTcLB85gJyChBBRs++oDO4ab8Qkmcwyw8HFEegUgCTMDPIq3BE1P/QCOxYLPHsqCWgzSJZ15wwoj0mXaM4ATmia5I6IzhJ54asc+gNnBybZVRtgxh8o300cu9zWusBjJRtEs3hlcXKJkDM5EiJhfZseY1ecyR0Q9PSjtcDhEUzDQq6w1JPttQtgL15UGy/Y3njlLpXdD1wxBDBEZMoIenC1TsdqYP0lYrf8ySgaloLITvqu9Ha0mV8baxF+LVeiSDfph/ToDwPuy1mjU3pTrGlc2h1SC/52w63im2nufRPL4eMpq+UloG6Jdim5ZTuyCkga0vEJat1D/G8UCwBde4M6wHZ0npnhMrOk8wO488UlqGiFR6jq3DZkljXIQYkr5dlBDNUzBopD/920JfxcJhW2NvvdmeVV9O+S4+/AQ==);fillColor=none;" parent="58xph6KQq2uh9m1sD0tC-7" vertex="1">
          <mxGeometry x="9.365518672199169" y="17.02838063439065" width="14.674315352697093" height="11.719532554257096" as="geometry" />
        </mxCell>
        <mxCell id="58xph6KQq2uh9m1sD0tC-9" value="" style="shape=stencil(lVfLctswDPwaXTEkwOc5Tf8jM3FqTV0747ivvy80KtWAlLeTmyxzAQJYLKBJHt6OT6+Hid3b7Xr5evg5P9+Ok3yamOfz8XCdb/o0yeMkDy+X6+HL9fL9/Lz+fn1aTi5P3y4/Fgu/VlwoVPKCYvd7fcOO3Prm8wo4zef3gNwDfCZ2AMBUkgUEqv4+QNRe50GoCgCovdQDEgOAoyIWwBTDfQAnEu4BvgKAp+I+4sEXcvEjMWgSuVpAbCb2AZ649IWL6T6gULI3UmZkEHMiZ3PEgTIqG2VbNa4kwL6m1N5fInlg35HY88E1Jt4572zJQqIKEqrZsPmJQgHwmoltvLGSB5QIFL05nyIxiFcb0xIiO6qgk5WR2SYoJ8qgk0eOFt9yth+xUth6KJESKIFyrnYeKiWkFdoFNkmVW2/vAyoFKy41wqCDkqzzkCkAmsaBd1WjAp0cY0+MqkEDYiRHvtMK52AhlDnB9y7+qsE+l1xfOQ2CQSFypBosQPUAqYtvU2MDCEXQbkod6Ty4psr7AG0v66Eov0FelTpdqQs3Gd8HhGZv66ACuaE5SVYjs2oGqINm3VtAUg8grXWY50lwDEqETsawLC3ktFeKgQoabW5QVu0RNAxHFyrFjABD1ME3Pu4Dcl85KSSAfXW7wAbQ4gN1VW6I7WrxOOiBfaqG/+F36Qa0bgCAfUr/YmNYZirqURn2pAp1pmilux0jwRmdx8UKrz15XKy2ObwvfamJ79bUkEqJydmYE0xqTG1p2epMBan9MB48BZChMPCol3p9+Lfdv8yn0/px8P7//mtAX61fEvL4Bw==);fillColor=none;" parent="58xph6KQq2uh9m1sD0tC-7" vertex="1">
          <mxGeometry x="54.390124481327796" y="16.026711185308848" width="13.322074688796679" height="13.973288814691152" as="geometry" />
        </mxCell>
        <mxCell id="58xph6KQq2uh9m1sD0tC-10" value="" style="shape=stencil(lVvZchs3EPwavaJwH8+O8x+ushyr4lguWbn+Po2osBQaZIP7JpHTuwDm6pkBH8KHn18//Xh88Pbn68vz749/P31+/foQfnnw/un718eXp1f89RA+PoQPX55fHn97ef7z++e3/3986pL9rz+e/+pP+OcNV0xqHeTtv28ftGhq+P+TX9/kvz19n+SdOyOfTYpn5JNp+Zx8PrX+ZNyp50eT/Tl5e2o9waRT6wnG1jPy3uRT+vLGhTPyzuRT63fGL/YQ7W15ayqdZzAlKXm2Z5xAUfKB1u9MqErezedf2ziBG/J2fn4tpngpb2f5NCzkTvlgXDsj74wV+lrkSzVVng/LZ9PiGfk0PrlTPhiv1zOff4F+5Xrc7O+5beyT7CEXE6W+wrz+DP1Ke4iz/2ZEDLlfsv8MD5X7LWWST80UsV9Yy7yeBHsW+138PWVpb87E+TxTNMEp+TLrK/lxAjfkKb8kRBixfj/ePuRjNUWsx5syx8+Ypb3Bemd7iME0Ea+CyfP5RCf3G41Lk3xoQ4O38t38/JBNFPaZhvcd8siAIj4jv8/2GaBxsd88rHfI+ybtoRg/P//CcG7IN3o+GIVYfzV51hc00sT5NOPn84eFRLH+xvYJD23K/i0bnNMByx357QBUE8QOnGdK48pw6luAOp+Ry4N1XQcgpM1ByKURJq8D4vCpAwAWoZaUOKzjnUWFicS8A4Cg9pA5EOEYVKLHIabEACs8oauJFKdDOwyBfB8Ar2ypDVM+AHa46/VgZwcXewdQbMU7dmcAnKKjfkSHg5/J9ARvpPzaRkK5Lh8XvivDF+TJP+soEK7Lw44iySt6hnhXZrvT6RVfU7wuo+C6Ll9NciQf1Pk3VthRAF5PT3ZEz4N/mCb0hehP/GMj78fXd8pDv/GMfBrHcad85vpzIw/1n9pv43yj5cEGlv1mYf/RD/ZzkffC/mPk/cLAhf2D/bRE8k4EudgWPmSSKucd23OQ5Uk6vr7Ie/X8PNz1yMeSTqRqIuV7mfqyHeHsCIiyXMp+VNcXeZVlclyyzDiw6/JQP6XiQaiuy9cRLi/yVpw/qqky60vTb1RrtH4r6RmqQfJfFFCqnQX+6knei/MshYmEleUqqmWKV/r51Q72f99+K+zBnTj/Gjk+a/upmfMjCiLhv727Mctr/6qVKYcu95rlekPHn+ZGtXxf/mqe6+eq6Xrg/uaG0PR2FzmwM1VouKXBzu+kri0vtC8NpdwCMO0rsmfWCge5Tc0BQCMr0l2YVpngw45U2Q1AobopycDSGjeyoWllqQBQJwZcR5peY1MKQdtS4z2AXSi+DgAnM92MdHZpn8VgnKq0riB0QwOLoooaOb2IkNR3MZtf0jGjNc6ZyNKqh7BqYtPkWnWddTEHgCfamEbVfAtAeTNvfK6aSsSxyUZ79wjqlIJaKD3UJVRuWht1OP273q30ucrJFum0Kj2AXVD10SQdRKChU6q6vQRAnhW36Z+vsa8m7Q9l+PABKLJj3cPxMmJQnAEA6rcg6ynSCQAPnfxod9wCUA5CGssqMuVlDJYHcbqV5ep8rP2g1RsSE8NuXepYE1cWrWrzjsMhD0AzQWXqwLVODzzK+AIPD9omVHqOS+/i8538Z4tYejqbRcE6qYTcbBsAG84cbK2L+ekmfC2L6uqYA90CWHpDlsESvJjmArAvFWgQJaiQ3wwya+RKD9pXkxMAiNF0zaglBSZZm9kkig0qtjfDSQRfCjR4hJpuoPyhdlbVJAv5gOqNzXwSX9PAupd0qgIt3IFElpMlZWYuUI4m1HVA5Bqu+NE1vLPI3aT2sky9LnX1dYBlawVAxW+QEU99Sz23yJWttb9TdRrKIKr3AjKHmR1gyRA7QBy18L2AsBzrBuC5XbIDOJ5b7PRgma5vNA3qTBO8jS2ltrA+Pw76zh7axh9SYfKwYa4AePIHfesABQa/Ics+Wq9I6JTqSDG3ADQo7KFNbTrzTaAN1U2JW1EbqgtAoTck2dsAIC+XXdRICwDqnmyoLgDrdR0VvQGwxAQ01U1Hv/kd1VW9jbWj3JJ0UQCo9NtwjeS4e7JhM2nJohu+tHbde3tEGF8sC5vRFC5mbiNsSGKMTFw3NDQGrrN2TDc67rVuEZaneTtEaMtYeIeoS4d/j6A7TlvEcktii8jLiH6HSNxV3GgcAL+QdmW1IY4A+a5mVIkFAK4jNGkPYalKdbsMAGIEKKfU9S4AqPDYcPDglxgbZS8LAJpggYPLEe4ykt1kIgCojN20dYK9QqnlJaylRQjOrGzJVw6Zm2uCfcxONEiTlH6xeWHIqg/kE1eMxUrj61eJT3X8+t1gywCVuvqssTHAqVOy3JoCjVf1XJ+OtTMA1/iSyw5Q+cLEZg8A8IR8c2Gq8MRmo4f1KhA07fXdIb7Uqll+vx5FZFEbn4uLA+mKcb1hBX/IatOBO68bjwMgZgYo0u7CUgDqINAvYNEedOUOQCDSnuX02y0MYtNM6De2SA966tRvbNEp6fuPznLKqnbs6haAzBt1hLoyAgAXHrqps1Cgqq+ItmVBmw47j6hrlvfiFoJV65iY3pBfixTZV1uuoOmfFCz0bUMyCvvypuDY/8QHf1x+H/Tl6du3t58Xvf+ef0+Ej95+ixQ+/gc=);fillColor=none;" parent="58xph6KQq2uh9m1sD0tC-7" vertex="1">
          <mxGeometry width="84.49" height="23.23873121869783" as="geometry" />
        </mxCell>
        <mxCell id="E73d9f6wTJtsomJWeAMY-43" style="edgeStyle=orthogonalEdgeStyle;rounded=0;orthogonalLoop=1;jettySize=auto;html=1;entryX=0;entryY=0.106;entryDx=0;entryDy=0;entryPerimeter=0;dashed=1;" parent="1" source="58xph6KQq2uh9m1sD0tC-12" target="E73d9f6wTJtsomJWeAMY-39" edge="1">
          <mxGeometry relative="1" as="geometry" />
        </mxCell>
        <mxCell id="58xph6KQq2uh9m1sD0tC-12" value="Broker" style="shape=cylinder3;whiteSpace=wrap;html=1;boundedLbl=1;backgroundOutline=1;size=15;rotation=90;" parent="1" vertex="1">
          <mxGeometry x="492" y="69" width="37.5" height="125" as="geometry" />
        </mxCell>
        <mxCell id="58xph6KQq2uh9m1sD0tC-13" style="edgeStyle=none;rounded=0;orthogonalLoop=1;jettySize=auto;html=1;entryX=0.5;entryY=1;entryDx=0;entryDy=0;entryPerimeter=0;dashed=1;" parent="1" source="58xph6KQq2uh9m1sD0tC-6" target="58xph6KQq2uh9m1sD0tC-12" edge="1">
          <mxGeometry relative="1" as="geometry">
            <mxPoint x="472" y="134" as="targetPoint" />
          </mxGeometry>
        </mxCell>
        <mxCell id="58xph6KQq2uh9m1sD0tC-14" style="edgeStyle=none;rounded=0;orthogonalLoop=1;jettySize=auto;html=1;entryX=0.5;entryY=1;entryDx=0;entryDy=0;entryPerimeter=0;dashed=1;" parent="1" source="58xph6KQq2uh9m1sD0tC-10" target="58xph6KQq2uh9m1sD0tC-12" edge="1">
          <mxGeometry relative="1" as="geometry">
            <mxPoint x="364.4020222170525" y="107.23873121869792" as="sourcePoint" />
          </mxGeometry>
        </mxCell>
        <mxCell id="58xph6KQq2uh9m1sD0tC-15" value="EPPController" style="swimlane;fontStyle=0;childLayout=stackLayout;horizontal=1;startSize=26;fillColor=none;horizontalStack=0;resizeParent=1;resizeParentMax=0;resizeLast=0;collapsible=1;marginBottom=0;" parent="1" vertex="1">
          <mxGeometry x="932" y="49" width="190" height="104" as="geometry" />
        </mxCell>
        <mxCell id="58xph6KQq2uh9m1sD0tC-16" value="+ field: stages: EPPStages" style="text;strokeColor=none;fillColor=none;align=left;verticalAlign=top;spacingLeft=4;spacingRight=4;overflow=hidden;rotatable=0;points=[[0,0.5],[1,0.5]];portConstraint=eastwest;" parent="58xph6KQq2uh9m1sD0tC-15" vertex="1">
          <mxGeometry y="26" width="190" height="26" as="geometry" />
        </mxCell>
        <mxCell id="58xph6KQq2uh9m1sD0tC-17" value="+ method: addStage" style="text;strokeColor=none;fillColor=none;align=left;verticalAlign=top;spacingLeft=4;spacingRight=4;overflow=hidden;rotatable=0;points=[[0,0.5],[1,0.5]];portConstraint=eastwest;" parent="58xph6KQq2uh9m1sD0tC-15" vertex="1">
          <mxGeometry y="52" width="190" height="26" as="geometry" />
        </mxCell>
        <mxCell id="58xph6KQq2uh9m1sD0tC-18" value="+ method: execute" style="text;strokeColor=none;fillColor=none;align=left;verticalAlign=top;spacingLeft=4;spacingRight=4;overflow=hidden;rotatable=0;points=[[0,0.5],[1,0.5]];portConstraint=eastwest;" parent="58xph6KQq2uh9m1sD0tC-15" vertex="1">
          <mxGeometry y="78" width="190" height="26" as="geometry" />
        </mxCell>
        <mxCell id="58xph6KQq2uh9m1sD0tC-19" style="edgeStyle=orthogonalEdgeStyle;rounded=0;orthogonalLoop=1;jettySize=auto;html=1;entryX=0;entryY=0.5;entryDx=0;entryDy=0;" parent="1" source="58xph6KQq2uh9m1sD0tC-18" target="58xph6KQq2uh9m1sD0tC-2" edge="1">
          <mxGeometry relative="1" as="geometry" />
        </mxCell>
        <mxCell id="EF1YQZ6bB0Tq9nVjoWP--3" value="passes Event" style="edgeLabel;html=1;align=center;verticalAlign=middle;resizable=0;points=[];" parent="58xph6KQq2uh9m1sD0tC-19" vertex="1" connectable="0">
          <mxGeometry x="-0.2979" y="2" relative="1" as="geometry">
            <mxPoint as="offset" />
          </mxGeometry>
        </mxCell>
        <mxCell id="58xph6KQq2uh9m1sD0tC-20" style="edgeStyle=orthogonalEdgeStyle;rounded=0;orthogonalLoop=1;jettySize=auto;html=1;entryX=1;entryY=0.5;entryDx=0;entryDy=0;dashed=1;exitX=1;exitY=0.5;exitDx=0;exitDy=0;" parent="1" source="58xph6KQq2uh9m1sD0tC-2" target="58xph6KQq2uh9m1sD0tC-18" edge="1">
          <mxGeometry relative="1" as="geometry">
            <Array as="points">
              <mxPoint x="1162" y="228" />
              <mxPoint x="1162" y="140" />
            </Array>
          </mxGeometry>
        </mxCell>
        <mxCell id="EF1YQZ6bB0Tq9nVjoWP--2" value="returns Event" style="edgeLabel;html=1;align=center;verticalAlign=middle;resizable=0;points=[];" parent="58xph6KQq2uh9m1sD0tC-20" vertex="1" connectable="0">
          <mxGeometry x="0.2152" y="-3" relative="1" as="geometry">
            <mxPoint as="offset" />
          </mxGeometry>
        </mxCell>
        <mxCell id="E73d9f6wTJtsomJWeAMY-3" value="" style="group" parent="1" vertex="1" connectable="0">
          <mxGeometry x="282" y="539.97" width="84.49" height="30" as="geometry" />
        </mxCell>
        <mxCell id="E73d9f6wTJtsomJWeAMY-4" value="" style="shape=stencil(jVbLctswDPwaXXdIgiTIc5r+R2bi1Jq6dsZx+vj7wlWlGogE9yZLC5pY7AIY6OFt//S6G1J4u5xPX3c/xufLfqBPQ0rjcb87jxd5GuhxoIeX03n35Xx6Pz5Pv1+frsjr07fT9+sJP6e4nlHyNSqFX9ObhlL+vPg84Q/j8RZPqKTwFYkdfEBkhS+ItI1vBUXj5Q+rg08oXeETet/Gc0UuCh/BcRtfO2pS+IDm8FMjQjf4ELbxJSHZ8z18pvnz/92HCDEaPj389bO+f0N36hsLWN8niqKcAneUqusV0LOTMKI+Xy5UnfOFf80nVbCTcLB85gJyChBBRs++oDO4ab8Qkmcwyw8HFEegUgCTMDPIq3BE1P/QCOxYLPHsqCWgzSJZ15wwoj0mXaM4ATmia5I6IzhJ54asc+gNnBybZVRtgxh8o300cu9zWusBjJRtEs3hlcXKJkDM5EiJhfZseY1ecyR0Q9PSjtcDhEUzDQq6w1JPttQtgL15UGy/Y3njlLpXdD1wxBDBEZMoIenC1TsdqYP0lYrf8ySgaloLITvqu9Ha0mV8baxF+LVeiSDfph/ToDwPuy1mjU3pTrGlc2h1SC/52w63im2nufRPL4eMpq+UloG6Jdim5ZTuyCkga0vEJat1D/G8UCwBde4M6wHZ0npnhMrOk8wO488UlqGiFR6jq3DZkljXIQYkr5dlBDNUzBopD/920JfxcJhW2NvvdmeVV9O+S4+/AQ==);fillColor=none;" parent="E73d9f6wTJtsomJWeAMY-3" vertex="1">
          <mxGeometry x="9.365518672199169" y="17.02838063439065" width="14.674315352697093" height="11.719532554257096" as="geometry" />
        </mxCell>
        <mxCell id="E73d9f6wTJtsomJWeAMY-5" value="" style="shape=stencil(lVfLctswDPwaXTEkwOc5Tf8jM3FqTV0747ivvy80KtWAlLeTmyxzAQJYLKBJHt6OT6+Hid3b7Xr5evg5P9+Ok3yamOfz8XCdb/o0yeMkDy+X6+HL9fL9/Lz+fn1aTi5P3y4/Fgu/VlwoVPKCYvd7fcOO3Prm8wo4zef3gNwDfCZ2AMBUkgUEqv4+QNRe50GoCgCovdQDEgOAoyIWwBTDfQAnEu4BvgKAp+I+4sEXcvEjMWgSuVpAbCb2AZ649IWL6T6gULI3UmZkEHMiZ3PEgTIqG2VbNa4kwL6m1N5fInlg35HY88E1Jt4572zJQqIKEqrZsPmJQgHwmoltvLGSB5QIFL05nyIxiFcb0xIiO6qgk5WR2SYoJ8qgk0eOFt9yth+xUth6KJESKIFyrnYeKiWkFdoFNkmVW2/vAyoFKy41wqCDkqzzkCkAmsaBd1WjAp0cY0+MqkEDYiRHvtMK52AhlDnB9y7+qsE+l1xfOQ2CQSFypBosQPUAqYtvU2MDCEXQbkod6Ty4psr7AG0v66Eov0FelTpdqQs3Gd8HhGZv66ACuaE5SVYjs2oGqINm3VtAUg8grXWY50lwDEqETsawLC3ktFeKgQoabW5QVu0RNAxHFyrFjABD1ME3Pu4Dcl85KSSAfXW7wAbQ4gN1VW6I7WrxOOiBfaqG/+F36Qa0bgCAfUr/YmNYZirqURn2pAp1pmilux0jwRmdx8UKrz15XKy2ObwvfamJ79bUkEqJydmYE0xqTG1p2epMBan9MB48BZChMPCol3p9+Lfdv8yn0/px8P7//mtAX61fEvL4Bw==);fillColor=none;" parent="E73d9f6wTJtsomJWeAMY-3" vertex="1">
          <mxGeometry x="54.390124481327796" y="16.026711185308848" width="13.322074688796679" height="13.973288814691152" as="geometry" />
        </mxCell>
        <mxCell id="E73d9f6wTJtsomJWeAMY-6" value="" style="shape=stencil(lVvZchs3EPwavaJwH8+O8x+ushyr4lguWbn+Po2osBQaZIP7JpHTuwDm6pkBH8KHn18//Xh88Pbn68vz749/P31+/foQfnnw/un718eXp1f89RA+PoQPX55fHn97ef7z++e3/3986pL9rz+e/+pP+OcNV0xqHeTtv28ftGhq+P+TX9/kvz19n+SdOyOfTYpn5JNp+Zx8PrX+ZNyp50eT/Tl5e2o9waRT6wnG1jPy3uRT+vLGhTPyzuRT63fGL/YQ7W15ayqdZzAlKXm2Z5xAUfKB1u9MqErezedf2ziBG/J2fn4tpngpb2f5NCzkTvlgXDsj74wV+lrkSzVVng/LZ9PiGfk0PrlTPhiv1zOff4F+5Xrc7O+5beyT7CEXE6W+wrz+DP1Ke4iz/2ZEDLlfsv8MD5X7LWWST80UsV9Yy7yeBHsW+138PWVpb87E+TxTNMEp+TLrK/lxAjfkKb8kRBixfj/ePuRjNUWsx5syx8+Ypb3Bemd7iME0Ea+CyfP5RCf3G41Lk3xoQ4O38t38/JBNFPaZhvcd8siAIj4jv8/2GaBxsd88rHfI+ybtoRg/P//CcG7IN3o+GIVYfzV51hc00sT5NOPn84eFRLH+xvYJD23K/i0bnNMByx357QBUE8QOnGdK48pw6luAOp+Ry4N1XQcgpM1ByKURJq8D4vCpAwAWoZaUOKzjnUWFicS8A4Cg9pA5EOEYVKLHIabEACs8oauJFKdDOwyBfB8Ar2ypDVM+AHa46/VgZwcXewdQbMU7dmcAnKKjfkSHg5/J9ARvpPzaRkK5Lh8XvivDF+TJP+soEK7Lw44iySt6hnhXZrvT6RVfU7wuo+C6Ll9NciQf1Pk3VthRAF5PT3ZEz4N/mCb0hehP/GMj78fXd8pDv/GMfBrHcad85vpzIw/1n9pv43yj5cEGlv1mYf/RD/ZzkffC/mPk/cLAhf2D/bRE8k4EudgWPmSSKucd23OQ5Uk6vr7Ie/X8PNz1yMeSTqRqIuV7mfqyHeHsCIiyXMp+VNcXeZVlclyyzDiw6/JQP6XiQaiuy9cRLi/yVpw/qqky60vTb1RrtH4r6RmqQfJfFFCqnQX+6knei/MshYmEleUqqmWKV/r51Q72f99+K+zBnTj/Gjk+a/upmfMjCiLhv727Mctr/6qVKYcu95rlekPHn+ZGtXxf/mqe6+eq6Xrg/uaG0PR2FzmwM1VouKXBzu+kri0vtC8NpdwCMO0rsmfWCge5Tc0BQCMr0l2YVpngw45U2Q1AobopycDSGjeyoWllqQBQJwZcR5peY1MKQdtS4z2AXSi+DgAnM92MdHZpn8VgnKq0riB0QwOLoooaOb2IkNR3MZtf0jGjNc6ZyNKqh7BqYtPkWnWddTEHgCfamEbVfAtAeTNvfK6aSsSxyUZ79wjqlIJaKD3UJVRuWht1OP273q30ucrJFum0Kj2AXVD10SQdRKChU6q6vQRAnhW36Z+vsa8m7Q9l+PABKLJj3cPxMmJQnAEA6rcg6ynSCQAPnfxod9wCUA5CGssqMuVlDJYHcbqV5ep8rP2g1RsSE8NuXepYE1cWrWrzjsMhD0AzQWXqwLVODzzK+AIPD9omVHqOS+/i8538Z4tYejqbRcE6qYTcbBsAG84cbK2L+ekmfC2L6uqYA90CWHpDlsESvJjmArAvFWgQJaiQ3wwya+RKD9pXkxMAiNF0zaglBSZZm9kkig0qtjfDSQRfCjR4hJpuoPyhdlbVJAv5gOqNzXwSX9PAupd0qgIt3IFElpMlZWYuUI4m1HVA5Bqu+NE1vLPI3aT2sky9LnX1dYBlawVAxW+QEU99Sz23yJWttb9TdRrKIKr3AjKHmR1gyRA7QBy18L2AsBzrBuC5XbIDOJ5b7PRgma5vNA3qTBO8jS2ltrA+Pw76zh7axh9SYfKwYa4AePIHfesABQa/Ics+Wq9I6JTqSDG3ADQo7KFNbTrzTaAN1U2JW1EbqgtAoTck2dsAIC+XXdRICwDqnmyoLgDrdR0VvQGwxAQ01U1Hv/kd1VW9jbWj3JJ0UQCo9NtwjeS4e7JhM2nJohu+tHbde3tEGF8sC5vRFC5mbiNsSGKMTFw3NDQGrrN2TDc67rVuEZaneTtEaMtYeIeoS4d/j6A7TlvEcktii8jLiH6HSNxV3GgcAL+QdmW1IY4A+a5mVIkFAK4jNGkPYalKdbsMAGIEKKfU9S4AqPDYcPDglxgbZS8LAJpggYPLEe4ykt1kIgCojN20dYK9QqnlJaylRQjOrGzJVw6Zm2uCfcxONEiTlH6xeWHIqg/kE1eMxUrj61eJT3X8+t1gywCVuvqssTHAqVOy3JoCjVf1XJ+OtTMA1/iSyw5Q+cLEZg8A8IR8c2Gq8MRmo4f1KhA07fXdIb7Uqll+vx5FZFEbn4uLA+mKcb1hBX/IatOBO68bjwMgZgYo0u7CUgDqINAvYNEedOUOQCDSnuX02y0MYtNM6De2SA966tRvbNEp6fuPznLKqnbs6haAzBt1hLoyAgAXHrqps1Cgqq+ItmVBmw47j6hrlvfiFoJV65iY3pBfixTZV1uuoOmfFCz0bUMyCvvypuDY/8QHf1x+H/Tl6du3t58Xvf+ef0+Ej95+ixQ+/gc=);fillColor=none;" parent="E73d9f6wTJtsomJWeAMY-3" vertex="1">
          <mxGeometry width="84.49" height="23.23873121869783" as="geometry" />
        </mxCell>
        <mxCell id="E73d9f6wTJtsomJWeAMY-7" value="" style="group" parent="1" vertex="1" connectable="0">
          <mxGeometry x="282" y="579.97" width="84.49" height="30" as="geometry" />
        </mxCell>
        <mxCell id="E73d9f6wTJtsomJWeAMY-8" value="" style="shape=stencil(jVbLctswDPwaXXdIgiTIc5r+R2bi1Jq6dsZx+vj7wlWlGogE9yZLC5pY7AIY6OFt//S6G1J4u5xPX3c/xufLfqBPQ0rjcb87jxd5GuhxoIeX03n35Xx6Pz5Pv1+frsjr07fT9+sJP6e4nlHyNSqFX9ObhlL+vPg84Q/j8RZPqKTwFYkdfEBkhS+ItI1vBUXj5Q+rg08oXeETet/Gc0UuCh/BcRtfO2pS+IDm8FMjQjf4ELbxJSHZ8z18pvnz/92HCDEaPj389bO+f0N36hsLWN8niqKcAneUqusV0LOTMKI+Xy5UnfOFf80nVbCTcLB85gJyChBBRs++oDO4ab8Qkmcwyw8HFEegUgCTMDPIq3BE1P/QCOxYLPHsqCWgzSJZ15wwoj0mXaM4ATmia5I6IzhJ54asc+gNnBybZVRtgxh8o300cu9zWusBjJRtEs3hlcXKJkDM5EiJhfZseY1ecyR0Q9PSjtcDhEUzDQq6w1JPttQtgL15UGy/Y3njlLpXdD1wxBDBEZMoIenC1TsdqYP0lYrf8ySgaloLITvqu9Ha0mV8baxF+LVeiSDfph/ToDwPuy1mjU3pTrGlc2h1SC/52w63im2nufRPL4eMpq+UloG6Jdim5ZTuyCkga0vEJat1D/G8UCwBde4M6wHZ0npnhMrOk8wO488UlqGiFR6jq3DZkljXIQYkr5dlBDNUzBopD/920JfxcJhW2NvvdmeVV9O+S4+/AQ==);fillColor=none;" parent="E73d9f6wTJtsomJWeAMY-7" vertex="1">
          <mxGeometry x="9.365518672199169" y="17.02838063439065" width="14.674315352697093" height="11.719532554257096" as="geometry" />
        </mxCell>
        <mxCell id="E73d9f6wTJtsomJWeAMY-9" value="" style="shape=stencil(lVfLctswDPwaXTEkwOc5Tf8jM3FqTV0747ivvy80KtWAlLeTmyxzAQJYLKBJHt6OT6+Hid3b7Xr5evg5P9+Ok3yamOfz8XCdb/o0yeMkDy+X6+HL9fL9/Lz+fn1aTi5P3y4/Fgu/VlwoVPKCYvd7fcOO3Prm8wo4zef3gNwDfCZ2AMBUkgUEqv4+QNRe50GoCgCovdQDEgOAoyIWwBTDfQAnEu4BvgKAp+I+4sEXcvEjMWgSuVpAbCb2AZ649IWL6T6gULI3UmZkEHMiZ3PEgTIqG2VbNa4kwL6m1N5fInlg35HY88E1Jt4572zJQqIKEqrZsPmJQgHwmoltvLGSB5QIFL05nyIxiFcb0xIiO6qgk5WR2SYoJ8qgk0eOFt9yth+xUth6KJESKIFyrnYeKiWkFdoFNkmVW2/vAyoFKy41wqCDkqzzkCkAmsaBd1WjAp0cY0+MqkEDYiRHvtMK52AhlDnB9y7+qsE+l1xfOQ2CQSFypBosQPUAqYtvU2MDCEXQbkod6Ty4psr7AG0v66Eov0FelTpdqQs3Gd8HhGZv66ACuaE5SVYjs2oGqINm3VtAUg8grXWY50lwDEqETsawLC3ktFeKgQoabW5QVu0RNAxHFyrFjABD1ME3Pu4Dcl85KSSAfXW7wAbQ4gN1VW6I7WrxOOiBfaqG/+F36Qa0bgCAfUr/YmNYZirqURn2pAp1pmilux0jwRmdx8UKrz15XKy2ObwvfamJ79bUkEqJydmYE0xqTG1p2epMBan9MB48BZChMPCol3p9+Lfdv8yn0/px8P7//mtAX61fEvL4Bw==);fillColor=none;" parent="E73d9f6wTJtsomJWeAMY-7" vertex="1">
          <mxGeometry x="54.390124481327796" y="16.026711185308848" width="13.322074688796679" height="13.973288814691152" as="geometry" />
        </mxCell>
        <mxCell id="E73d9f6wTJtsomJWeAMY-10" value="" style="shape=stencil(lVvZchs3EPwavaJwH8+O8x+ushyr4lguWbn+Po2osBQaZIP7JpHTuwDm6pkBH8KHn18//Xh88Pbn68vz749/P31+/foQfnnw/un718eXp1f89RA+PoQPX55fHn97ef7z++e3/3986pL9rz+e/+pP+OcNV0xqHeTtv28ftGhq+P+TX9/kvz19n+SdOyOfTYpn5JNp+Zx8PrX+ZNyp50eT/Tl5e2o9waRT6wnG1jPy3uRT+vLGhTPyzuRT63fGL/YQ7W15ayqdZzAlKXm2Z5xAUfKB1u9MqErezedf2ziBG/J2fn4tpngpb2f5NCzkTvlgXDsj74wV+lrkSzVVng/LZ9PiGfk0PrlTPhiv1zOff4F+5Xrc7O+5beyT7CEXE6W+wrz+DP1Ke4iz/2ZEDLlfsv8MD5X7LWWST80UsV9Yy7yeBHsW+138PWVpb87E+TxTNMEp+TLrK/lxAjfkKb8kRBixfj/ePuRjNUWsx5syx8+Ypb3Bemd7iME0Ea+CyfP5RCf3G41Lk3xoQ4O38t38/JBNFPaZhvcd8siAIj4jv8/2GaBxsd88rHfI+ybtoRg/P//CcG7IN3o+GIVYfzV51hc00sT5NOPn84eFRLH+xvYJD23K/i0bnNMByx357QBUE8QOnGdK48pw6luAOp+Ry4N1XQcgpM1ByKURJq8D4vCpAwAWoZaUOKzjnUWFicS8A4Cg9pA5EOEYVKLHIabEACs8oauJFKdDOwyBfB8Ar2ypDVM+AHa46/VgZwcXewdQbMU7dmcAnKKjfkSHg5/J9ARvpPzaRkK5Lh8XvivDF+TJP+soEK7Lw44iySt6hnhXZrvT6RVfU7wuo+C6Ll9NciQf1Pk3VthRAF5PT3ZEz4N/mCb0hehP/GMj78fXd8pDv/GMfBrHcad85vpzIw/1n9pv43yj5cEGlv1mYf/RD/ZzkffC/mPk/cLAhf2D/bRE8k4EudgWPmSSKucd23OQ5Uk6vr7Ie/X8PNz1yMeSTqRqIuV7mfqyHeHsCIiyXMp+VNcXeZVlclyyzDiw6/JQP6XiQaiuy9cRLi/yVpw/qqky60vTb1RrtH4r6RmqQfJfFFCqnQX+6knei/MshYmEleUqqmWKV/r51Q72f99+K+zBnTj/Gjk+a/upmfMjCiLhv727Mctr/6qVKYcu95rlekPHn+ZGtXxf/mqe6+eq6Xrg/uaG0PR2FzmwM1VouKXBzu+kri0vtC8NpdwCMO0rsmfWCge5Tc0BQCMr0l2YVpngw45U2Q1AobopycDSGjeyoWllqQBQJwZcR5peY1MKQdtS4z2AXSi+DgAnM92MdHZpn8VgnKq0riB0QwOLoooaOb2IkNR3MZtf0jGjNc6ZyNKqh7BqYtPkWnWddTEHgCfamEbVfAtAeTNvfK6aSsSxyUZ79wjqlIJaKD3UJVRuWht1OP273q30ucrJFum0Kj2AXVD10SQdRKChU6q6vQRAnhW36Z+vsa8m7Q9l+PABKLJj3cPxMmJQnAEA6rcg6ynSCQAPnfxod9wCUA5CGssqMuVlDJYHcbqV5ep8rP2g1RsSE8NuXepYE1cWrWrzjsMhD0AzQWXqwLVODzzK+AIPD9omVHqOS+/i8538Z4tYejqbRcE6qYTcbBsAG84cbK2L+ekmfC2L6uqYA90CWHpDlsESvJjmArAvFWgQJaiQ3wwya+RKD9pXkxMAiNF0zaglBSZZm9kkig0qtjfDSQRfCjR4hJpuoPyhdlbVJAv5gOqNzXwSX9PAupd0qgIt3IFElpMlZWYuUI4m1HVA5Bqu+NE1vLPI3aT2sky9LnX1dYBlawVAxW+QEU99Sz23yJWttb9TdRrKIKr3AjKHmR1gyRA7QBy18L2AsBzrBuC5XbIDOJ5b7PRgma5vNA3qTBO8jS2ltrA+Pw76zh7axh9SYfKwYa4AePIHfesABQa/Ics+Wq9I6JTqSDG3ADQo7KFNbTrzTaAN1U2JW1EbqgtAoTck2dsAIC+XXdRICwDqnmyoLgDrdR0VvQGwxAQ01U1Hv/kd1VW9jbWj3JJ0UQCo9NtwjeS4e7JhM2nJohu+tHbde3tEGF8sC5vRFC5mbiNsSGKMTFw3NDQGrrN2TDc67rVuEZaneTtEaMtYeIeoS4d/j6A7TlvEcktii8jLiH6HSNxV3GgcAL+QdmW1IY4A+a5mVIkFAK4jNGkPYalKdbsMAGIEKKfU9S4AqPDYcPDglxgbZS8LAJpggYPLEe4ykt1kIgCojN20dYK9QqnlJaylRQjOrGzJVw6Zm2uCfcxONEiTlH6xeWHIqg/kE1eMxUrj61eJT3X8+t1gywCVuvqssTHAqVOy3JoCjVf1XJ+OtTMA1/iSyw5Q+cLEZg8A8IR8c2Gq8MRmo4f1KhA07fXdIb7Uqll+vx5FZFEbn4uLA+mKcb1hBX/IatOBO68bjwMgZgYo0u7CUgDqINAvYNEedOUOQCDSnuX02y0MYtNM6De2SA966tRvbNEp6fuPznLKqnbs6haAzBt1hLoyAgAXHrqps1Cgqq+ItmVBmw47j6hrlvfiFoJV65iY3pBfixTZV1uuoOmfFCz0bUMyCvvypuDY/8QHf1x+H/Tl6du3t58Xvf+ef0+Ej95+ixQ+/gc=);fillColor=none;" parent="E73d9f6wTJtsomJWeAMY-7" vertex="1">
          <mxGeometry width="84.49" height="23.23873121869783" as="geometry" />
        </mxCell>
        <mxCell id="E73d9f6wTJtsomJWeAMY-11" style="edgeStyle=orthogonalEdgeStyle;rounded=0;orthogonalLoop=1;jettySize=auto;html=1;entryX=0.5;entryY=0;entryDx=0;entryDy=0;dashed=1;" parent="1" source="E73d9f6wTJtsomJWeAMY-12" target="E73d9f6wTJtsomJWeAMY-15" edge="1">
          <mxGeometry relative="1" as="geometry" />
        </mxCell>
        <mxCell id="E73d9f6wTJtsomJWeAMY-12" value="Broker" style="shape=cylinder3;whiteSpace=wrap;html=1;boundedLbl=1;backgroundOutline=1;size=15;rotation=90;" parent="1" vertex="1">
          <mxGeometry x="529.5" y="515" width="37.5" height="125" as="geometry" />
        </mxCell>
        <mxCell id="E73d9f6wTJtsomJWeAMY-13" style="edgeStyle=none;rounded=0;orthogonalLoop=1;jettySize=auto;html=1;entryX=0.5;entryY=1;entryDx=0;entryDy=0;entryPerimeter=0;dashed=1;" parent="1" source="E73d9f6wTJtsomJWeAMY-6" target="E73d9f6wTJtsomJWeAMY-12" edge="1">
          <mxGeometry relative="1" as="geometry">
            <mxPoint x="472" y="583.97" as="targetPoint" />
          </mxGeometry>
        </mxCell>
        <mxCell id="E73d9f6wTJtsomJWeAMY-14" style="edgeStyle=none;rounded=0;orthogonalLoop=1;jettySize=auto;html=1;entryX=0.5;entryY=1;entryDx=0;entryDy=0;entryPerimeter=0;dashed=1;" parent="1" source="E73d9f6wTJtsomJWeAMY-10" target="E73d9f6wTJtsomJWeAMY-12" edge="1">
          <mxGeometry relative="1" as="geometry">
            <mxPoint x="364.4020222170525" y="557.208731218698" as="sourcePoint" />
          </mxGeometry>
        </mxCell>
        <mxCell id="E73d9f6wTJtsomJWeAMY-15" value="Resource" style="swimlane;fontStyle=0;childLayout=stackLayout;horizontal=1;startSize=26;fillColor=none;horizontalStack=0;resizeParent=1;resizeParentMax=0;resizeLast=0;collapsible=1;marginBottom=0;" parent="1" vertex="1">
          <mxGeometry x="843.5" y="499.97" width="190" height="104" as="geometry" />
        </mxCell>
        <mxCell id="E73d9f6wTJtsomJWeAMY-16" value="+ field: stages: AbstractEPPStages" style="text;strokeColor=none;fillColor=none;align=left;verticalAlign=top;spacingLeft=4;spacingRight=4;overflow=hidden;rotatable=0;points=[[0,0.5],[1,0.5]];portConstraint=eastwest;" parent="E73d9f6wTJtsomJWeAMY-15" vertex="1">
          <mxGeometry y="26" width="190" height="26" as="geometry" />
        </mxCell>
        <mxCell id="E73d9f6wTJtsomJWeAMY-17" value="+ method: addStage" style="text;strokeColor=none;fillColor=none;align=left;verticalAlign=top;spacingLeft=4;spacingRight=4;overflow=hidden;rotatable=0;points=[[0,0.5],[1,0.5]];portConstraint=eastwest;" parent="E73d9f6wTJtsomJWeAMY-15" vertex="1">
          <mxGeometry y="52" width="190" height="26" as="geometry" />
        </mxCell>
        <mxCell id="E73d9f6wTJtsomJWeAMY-18" value="+ method: execute" style="text;strokeColor=none;fillColor=none;align=left;verticalAlign=top;spacingLeft=4;spacingRight=4;overflow=hidden;rotatable=0;points=[[0,0.5],[1,0.5]];portConstraint=eastwest;" parent="E73d9f6wTJtsomJWeAMY-15" vertex="1">
          <mxGeometry y="78" width="190" height="26" as="geometry" />
        </mxCell>
        <mxCell id="E73d9f6wTJtsomJWeAMY-19" style="edgeStyle=orthogonalEdgeStyle;rounded=0;orthogonalLoop=1;jettySize=auto;html=1;entryX=0;entryY=0.5;entryDx=0;entryDy=0;" parent="1" source="E73d9f6wTJtsomJWeAMY-18" target="E73d9f6wTJtsomJWeAMY-35" edge="1">
          <mxGeometry relative="1" as="geometry">
            <mxPoint x="858.5" y="682.97" as="targetPoint" />
          </mxGeometry>
        </mxCell>
        <mxCell id="E73d9f6wTJtsomJWeAMY-20" value="passes Event" style="edgeLabel;html=1;align=center;verticalAlign=middle;resizable=0;points=[];" parent="E73d9f6wTJtsomJWeAMY-19" vertex="1" connectable="0">
          <mxGeometry x="-0.2979" y="2" relative="1" as="geometry">
            <mxPoint x="-32" y="29" as="offset" />
          </mxGeometry>
        </mxCell>
        <mxCell id="E73d9f6wTJtsomJWeAMY-32" value="«abstract»&#xa;AbstractEPPStage" style="swimlane;fontStyle=0;childLayout=stackLayout;horizontal=1;startSize=26;fillColor=none;horizontalStack=0;resizeParent=1;resizeParentMax=0;resizeLast=0;collapsible=1;marginBottom=0;" parent="1" vertex="1">
          <mxGeometry x="843.5" y="640" width="190" height="104" as="geometry" />
        </mxCell>
        <mxCell id="E73d9f6wTJtsomJWeAMY-33" value="+ field: stages: AbstractEPPStages" style="text;strokeColor=none;fillColor=none;align=left;verticalAlign=top;spacingLeft=4;spacingRight=4;overflow=hidden;rotatable=0;points=[[0,0.5],[1,0.5]];portConstraint=eastwest;" parent="E73d9f6wTJtsomJWeAMY-32" vertex="1">
          <mxGeometry y="26" width="190" height="26" as="geometry" />
        </mxCell>
        <mxCell id="E73d9f6wTJtsomJWeAMY-34" value="+ abstract method: execSelf" style="text;strokeColor=none;fillColor=none;align=left;verticalAlign=top;spacingLeft=4;spacingRight=4;overflow=hidden;rotatable=0;points=[[0,0.5],[1,0.5]];portConstraint=eastwest;" parent="E73d9f6wTJtsomJWeAMY-32" vertex="1">
          <mxGeometry y="52" width="190" height="26" as="geometry" />
        </mxCell>
        <mxCell id="E73d9f6wTJtsomJWeAMY-35" value="+ method: execute" style="text;strokeColor=none;fillColor=none;align=left;verticalAlign=top;spacingLeft=4;spacingRight=4;overflow=hidden;rotatable=0;points=[[0,0.5],[1,0.5]];portConstraint=eastwest;" parent="E73d9f6wTJtsomJWeAMY-32" vertex="1">
          <mxGeometry y="78" width="190" height="26" as="geometry" />
        </mxCell>
        <mxCell id="E73d9f6wTJtsomJWeAMY-36" style="edgeStyle=orthogonalEdgeStyle;rounded=0;orthogonalLoop=1;jettySize=auto;html=1;entryX=1;entryY=0.5;entryDx=0;entryDy=0;" parent="E73d9f6wTJtsomJWeAMY-32" source="E73d9f6wTJtsomJWeAMY-35" target="E73d9f6wTJtsomJWeAMY-35" edge="1">
          <mxGeometry relative="1" as="geometry">
            <Array as="points">
              <mxPoint x="-10" y="91" />
              <mxPoint x="-10" y="124" />
              <mxPoint x="210" y="124" />
              <mxPoint x="210" y="91" />
            </Array>
          </mxGeometry>
        </mxCell>
        <mxCell id="E73d9f6wTJtsomJWeAMY-37" value="Implementation 2" style="text;html=1;strokeColor=none;fillColor=none;align=center;verticalAlign=middle;whiteSpace=wrap;rounded=0;" parent="1" vertex="1">
          <mxGeometry x="276" y="482" width="116" height="30" as="geometry" />
        </mxCell>
        <mxCell id="E73d9f6wTJtsomJWeAMY-38" value="Implementation 1" style="text;html=1;strokeColor=none;fillColor=none;align=center;verticalAlign=middle;whiteSpace=wrap;rounded=0;" parent="1" vertex="1">
          <mxGeometry x="276" y="30" width="116" height="30" as="geometry" />
        </mxCell>
        <mxCell id="E73d9f6wTJtsomJWeAMY-39" value="Resource" style="swimlane;fontStyle=0;childLayout=stackLayout;horizontal=1;startSize=26;fillColor=none;horizontalStack=0;resizeParent=1;resizeParentMax=0;resizeLast=0;collapsible=1;marginBottom=0;" parent="1" vertex="1">
          <mxGeometry x="622" y="49" width="190" height="104" as="geometry" />
        </mxCell>
        <mxCell id="E73d9f6wTJtsomJWeAMY-40" value="+ field: controller EPPController" style="text;strokeColor=none;fillColor=none;align=left;verticalAlign=top;spacingLeft=4;spacingRight=4;overflow=hidden;rotatable=0;points=[[0,0.5],[1,0.5]];portConstraint=eastwest;" parent="E73d9f6wTJtsomJWeAMY-39" vertex="1">
          <mxGeometry y="26" width="190" height="26" as="geometry" />
        </mxCell>
        <mxCell id="E73d9f6wTJtsomJWeAMY-41" value="+ method: addStage" style="text;strokeColor=none;fillColor=none;align=left;verticalAlign=top;spacingLeft=4;spacingRight=4;overflow=hidden;rotatable=0;points=[[0,0.5],[1,0.5]];portConstraint=eastwest;" parent="E73d9f6wTJtsomJWeAMY-39" vertex="1">
          <mxGeometry y="52" width="190" height="26" as="geometry" />
        </mxCell>
        <mxCell id="E73d9f6wTJtsomJWeAMY-42" value="+ method: execute" style="text;strokeColor=none;fillColor=none;align=left;verticalAlign=top;spacingLeft=4;spacingRight=4;overflow=hidden;rotatable=0;points=[[0,0.5],[1,0.5]];portConstraint=eastwest;" parent="E73d9f6wTJtsomJWeAMY-39" vertex="1">
          <mxGeometry y="78" width="190" height="26" as="geometry" />
        </mxCell>
        <mxCell id="E73d9f6wTJtsomJWeAMY-44" style="edgeStyle=orthogonalEdgeStyle;rounded=0;orthogonalLoop=1;jettySize=auto;html=1;endArrow=diamondThin;endFill=1;" parent="1" source="E73d9f6wTJtsomJWeAMY-39" target="58xph6KQq2uh9m1sD0tC-15" edge="1">
          <mxGeometry relative="1" as="geometry" />
        </mxCell>
        <mxCell id="E73d9f6wTJtsomJWeAMY-45" style="edgeStyle=orthogonalEdgeStyle;rounded=0;orthogonalLoop=1;jettySize=auto;html=1;entryX=0;entryY=0.5;entryDx=0;entryDy=0;" parent="1" source="E73d9f6wTJtsomJWeAMY-41" target="58xph6KQq2uh9m1sD0tC-17" edge="1">
          <mxGeometry relative="1" as="geometry" />
        </mxCell>
        <mxCell id="aRcXMA_YCSUUPR6hCGXh-16" value="calls" style="edgeLabel;html=1;align=center;verticalAlign=middle;resizable=0;points=[];" vertex="1" connectable="0" parent="E73d9f6wTJtsomJWeAMY-45">
          <mxGeometry x="-0.2489" y="-1" relative="1" as="geometry">
            <mxPoint as="offset" />
          </mxGeometry>
        </mxCell>
        <mxCell id="E73d9f6wTJtsomJWeAMY-46" style="edgeStyle=orthogonalEdgeStyle;rounded=0;orthogonalLoop=1;jettySize=auto;html=1;entryX=0;entryY=0.5;entryDx=0;entryDy=0;" parent="1" source="E73d9f6wTJtsomJWeAMY-42" target="58xph6KQq2uh9m1sD0tC-18" edge="1">
          <mxGeometry relative="1" as="geometry" />
        </mxCell>
        <mxCell id="aRcXMA_YCSUUPR6hCGXh-17" value="calls" style="edgeLabel;html=1;align=center;verticalAlign=middle;resizable=0;points=[];" vertex="1" connectable="0" parent="E73d9f6wTJtsomJWeAMY-46">
          <mxGeometry x="-0.1224" y="-2" relative="1" as="geometry">
            <mxPoint as="offset" />
          </mxGeometry>
        </mxCell>
        <mxCell id="jlA9GcEc_NJZAZGfo52G-1" value="" style="group" parent="1" vertex="1" connectable="0">
          <mxGeometry x="282" y="1097.97" width="84.49" height="30" as="geometry" />
        </mxCell>
        <mxCell id="jlA9GcEc_NJZAZGfo52G-2" value="" style="shape=stencil(jVbLctswDPwaXXdIgiTIc5r+R2bi1Jq6dsZx+vj7wlWlGogE9yZLC5pY7AIY6OFt//S6G1J4u5xPX3c/xufLfqBPQ0rjcb87jxd5GuhxoIeX03n35Xx6Pz5Pv1+frsjr07fT9+sJP6e4nlHyNSqFX9ObhlL+vPg84Q/j8RZPqKTwFYkdfEBkhS+ItI1vBUXj5Q+rg08oXeETet/Gc0UuCh/BcRtfO2pS+IDm8FMjQjf4ELbxJSHZ8z18pvnz/92HCDEaPj389bO+f0N36hsLWN8niqKcAneUqusV0LOTMKI+Xy5UnfOFf80nVbCTcLB85gJyChBBRs++oDO4ab8Qkmcwyw8HFEegUgCTMDPIq3BE1P/QCOxYLPHsqCWgzSJZ15wwoj0mXaM4ATmia5I6IzhJ54asc+gNnBybZVRtgxh8o300cu9zWusBjJRtEs3hlcXKJkDM5EiJhfZseY1ecyR0Q9PSjtcDhEUzDQq6w1JPttQtgL15UGy/Y3njlLpXdD1wxBDBEZMoIenC1TsdqYP0lYrf8ySgaloLITvqu9Ha0mV8baxF+LVeiSDfph/ToDwPuy1mjU3pTrGlc2h1SC/52w63im2nufRPL4eMpq+UloG6Jdim5ZTuyCkga0vEJat1D/G8UCwBde4M6wHZ0npnhMrOk8wO488UlqGiFR6jq3DZkljXIQYkr5dlBDNUzBopD/920JfxcJhW2NvvdmeVV9O+S4+/AQ==);fillColor=none;" parent="jlA9GcEc_NJZAZGfo52G-1" vertex="1">
          <mxGeometry x="9.365518672199169" y="17.02838063439065" width="14.674315352697093" height="11.719532554257096" as="geometry" />
        </mxCell>
        <mxCell id="jlA9GcEc_NJZAZGfo52G-3" value="" style="shape=stencil(lVfLctswDPwaXTEkwOc5Tf8jM3FqTV0747ivvy80KtWAlLeTmyxzAQJYLKBJHt6OT6+Hid3b7Xr5evg5P9+Ok3yamOfz8XCdb/o0yeMkDy+X6+HL9fL9/Lz+fn1aTi5P3y4/Fgu/VlwoVPKCYvd7fcOO3Prm8wo4zef3gNwDfCZ2AMBUkgUEqv4+QNRe50GoCgCovdQDEgOAoyIWwBTDfQAnEu4BvgKAp+I+4sEXcvEjMWgSuVpAbCb2AZ649IWL6T6gULI3UmZkEHMiZ3PEgTIqG2VbNa4kwL6m1N5fInlg35HY88E1Jt4572zJQqIKEqrZsPmJQgHwmoltvLGSB5QIFL05nyIxiFcb0xIiO6qgk5WR2SYoJ8qgk0eOFt9yth+xUth6KJESKIFyrnYeKiWkFdoFNkmVW2/vAyoFKy41wqCDkqzzkCkAmsaBd1WjAp0cY0+MqkEDYiRHvtMK52AhlDnB9y7+qsE+l1xfOQ2CQSFypBosQPUAqYtvU2MDCEXQbkod6Ty4psr7AG0v66Eov0FelTpdqQs3Gd8HhGZv66ACuaE5SVYjs2oGqINm3VtAUg8grXWY50lwDEqETsawLC3ktFeKgQoabW5QVu0RNAxHFyrFjABD1ME3Pu4Dcl85KSSAfXW7wAbQ4gN1VW6I7WrxOOiBfaqG/+F36Qa0bgCAfUr/YmNYZirqURn2pAp1pmilux0jwRmdx8UKrz15XKy2ObwvfamJ79bUkEqJydmYE0xqTG1p2epMBan9MB48BZChMPCol3p9+Lfdv8yn0/px8P7//mtAX61fEvL4Bw==);fillColor=none;" parent="jlA9GcEc_NJZAZGfo52G-1" vertex="1">
          <mxGeometry x="54.390124481327796" y="16.026711185308848" width="13.322074688796679" height="13.973288814691152" as="geometry" />
        </mxCell>
        <mxCell id="jlA9GcEc_NJZAZGfo52G-4" value="" style="shape=stencil(lVvZchs3EPwavaJwH8+O8x+ushyr4lguWbn+Po2osBQaZIP7JpHTuwDm6pkBH8KHn18//Xh88Pbn68vz749/P31+/foQfnnw/un718eXp1f89RA+PoQPX55fHn97ef7z++e3/3986pL9rz+e/+pP+OcNV0xqHeTtv28ftGhq+P+TX9/kvz19n+SdOyOfTYpn5JNp+Zx8PrX+ZNyp50eT/Tl5e2o9waRT6wnG1jPy3uRT+vLGhTPyzuRT63fGL/YQ7W15ayqdZzAlKXm2Z5xAUfKB1u9MqErezedf2ziBG/J2fn4tpngpb2f5NCzkTvlgXDsj74wV+lrkSzVVng/LZ9PiGfk0PrlTPhiv1zOff4F+5Xrc7O+5beyT7CEXE6W+wrz+DP1Ke4iz/2ZEDLlfsv8MD5X7LWWST80UsV9Yy7yeBHsW+138PWVpb87E+TxTNMEp+TLrK/lxAjfkKb8kRBixfj/ePuRjNUWsx5syx8+Ypb3Bemd7iME0Ea+CyfP5RCf3G41Lk3xoQ4O38t38/JBNFPaZhvcd8siAIj4jv8/2GaBxsd88rHfI+ybtoRg/P//CcG7IN3o+GIVYfzV51hc00sT5NOPn84eFRLH+xvYJD23K/i0bnNMByx357QBUE8QOnGdK48pw6luAOp+Ry4N1XQcgpM1ByKURJq8D4vCpAwAWoZaUOKzjnUWFicS8A4Cg9pA5EOEYVKLHIabEACs8oauJFKdDOwyBfB8Ar2ypDVM+AHa46/VgZwcXewdQbMU7dmcAnKKjfkSHg5/J9ARvpPzaRkK5Lh8XvivDF+TJP+soEK7Lw44iySt6hnhXZrvT6RVfU7wuo+C6Ll9NciQf1Pk3VthRAF5PT3ZEz4N/mCb0hehP/GMj78fXd8pDv/GMfBrHcad85vpzIw/1n9pv43yj5cEGlv1mYf/RD/ZzkffC/mPk/cLAhf2D/bRE8k4EudgWPmSSKucd23OQ5Uk6vr7Ie/X8PNz1yMeSTqRqIuV7mfqyHeHsCIiyXMp+VNcXeZVlclyyzDiw6/JQP6XiQaiuy9cRLi/yVpw/qqky60vTb1RrtH4r6RmqQfJfFFCqnQX+6knei/MshYmEleUqqmWKV/r51Q72f99+K+zBnTj/Gjk+a/upmfMjCiLhv727Mctr/6qVKYcu95rlekPHn+ZGtXxf/mqe6+eq6Xrg/uaG0PR2FzmwM1VouKXBzu+kri0vtC8NpdwCMO0rsmfWCge5Tc0BQCMr0l2YVpngw45U2Q1AobopycDSGjeyoWllqQBQJwZcR5peY1MKQdtS4z2AXSi+DgAnM92MdHZpn8VgnKq0riB0QwOLoooaOb2IkNR3MZtf0jGjNc6ZyNKqh7BqYtPkWnWddTEHgCfamEbVfAtAeTNvfK6aSsSxyUZ79wjqlIJaKD3UJVRuWht1OP273q30ucrJFum0Kj2AXVD10SQdRKChU6q6vQRAnhW36Z+vsa8m7Q9l+PABKLJj3cPxMmJQnAEA6rcg6ynSCQAPnfxod9wCUA5CGssqMuVlDJYHcbqV5ep8rP2g1RsSE8NuXepYE1cWrWrzjsMhD0AzQWXqwLVODzzK+AIPD9omVHqOS+/i8538Z4tYejqbRcE6qYTcbBsAG84cbK2L+ekmfC2L6uqYA90CWHpDlsESvJjmArAvFWgQJaiQ3wwya+RKD9pXkxMAiNF0zaglBSZZm9kkig0qtjfDSQRfCjR4hJpuoPyhdlbVJAv5gOqNzXwSX9PAupd0qgIt3IFElpMlZWYuUI4m1HVA5Bqu+NE1vLPI3aT2sky9LnX1dYBlawVAxW+QEU99Sz23yJWttb9TdRrKIKr3AjKHmR1gyRA7QBy18L2AsBzrBuC5XbIDOJ5b7PRgma5vNA3qTBO8jS2ltrA+Pw76zh7axh9SYfKwYa4AePIHfesABQa/Ics+Wq9I6JTqSDG3ADQo7KFNbTrzTaAN1U2JW1EbqgtAoTck2dsAIC+XXdRICwDqnmyoLgDrdR0VvQGwxAQ01U1Hv/kd1VW9jbWj3JJ0UQCo9NtwjeS4e7JhM2nJohu+tHbde3tEGF8sC5vRFC5mbiNsSGKMTFw3NDQGrrN2TDc67rVuEZaneTtEaMtYeIeoS4d/j6A7TlvEcktii8jLiH6HSNxV3GgcAL+QdmW1IY4A+a5mVIkFAK4jNGkPYalKdbsMAGIEKKfU9S4AqPDYcPDglxgbZS8LAJpggYPLEe4ykt1kIgCojN20dYK9QqnlJaylRQjOrGzJVw6Zm2uCfcxONEiTlH6xeWHIqg/kE1eMxUrj61eJT3X8+t1gywCVuvqssTHAqVOy3JoCjVf1XJ+OtTMA1/iSyw5Q+cLEZg8A8IR8c2Gq8MRmo4f1KhA07fXdIb7Uqll+vx5FZFEbn4uLA+mKcb1hBX/IatOBO68bjwMgZgYo0u7CUgDqINAvYNEedOUOQCDSnuX02y0MYtNM6De2SA966tRvbNEp6fuPznLKqnbs6haAzBt1hLoyAgAXHrqps1Cgqq+ItmVBmw47j6hrlvfiFoJV65iY3pBfixTZV1uuoOmfFCz0bUMyCvvypuDY/8QHf1x+H/Tl6du3t58Xvf+ef0+Ej95+ixQ+/gc=);fillColor=none;" parent="jlA9GcEc_NJZAZGfo52G-1" vertex="1">
          <mxGeometry width="84.49" height="23.23873121869783" as="geometry" />
        </mxCell>
        <mxCell id="jlA9GcEc_NJZAZGfo52G-5" value="" style="group" parent="1" vertex="1" connectable="0">
          <mxGeometry x="282" y="1137.97" width="84.49" height="30" as="geometry" />
        </mxCell>
        <mxCell id="jlA9GcEc_NJZAZGfo52G-6" value="" style="shape=stencil(jVbLctswDPwaXXdIgiTIc5r+R2bi1Jq6dsZx+vj7wlWlGogE9yZLC5pY7AIY6OFt//S6G1J4u5xPX3c/xufLfqBPQ0rjcb87jxd5GuhxoIeX03n35Xx6Pz5Pv1+frsjr07fT9+sJP6e4nlHyNSqFX9ObhlL+vPg84Q/j8RZPqKTwFYkdfEBkhS+ItI1vBUXj5Q+rg08oXeETet/Gc0UuCh/BcRtfO2pS+IDm8FMjQjf4ELbxJSHZ8z18pvnz/92HCDEaPj389bO+f0N36hsLWN8niqKcAneUqusV0LOTMKI+Xy5UnfOFf80nVbCTcLB85gJyChBBRs++oDO4ab8Qkmcwyw8HFEegUgCTMDPIq3BE1P/QCOxYLPHsqCWgzSJZ15wwoj0mXaM4ATmia5I6IzhJ54asc+gNnBybZVRtgxh8o300cu9zWusBjJRtEs3hlcXKJkDM5EiJhfZseY1ecyR0Q9PSjtcDhEUzDQq6w1JPttQtgL15UGy/Y3njlLpXdD1wxBDBEZMoIenC1TsdqYP0lYrf8ySgaloLITvqu9Ha0mV8baxF+LVeiSDfph/ToDwPuy1mjU3pTrGlc2h1SC/52w63im2nufRPL4eMpq+UloG6Jdim5ZTuyCkga0vEJat1D/G8UCwBde4M6wHZ0npnhMrOk8wO488UlqGiFR6jq3DZkljXIQYkr5dlBDNUzBopD/920JfxcJhW2NvvdmeVV9O+S4+/AQ==);fillColor=none;" parent="jlA9GcEc_NJZAZGfo52G-5" vertex="1">
          <mxGeometry x="9.365518672199169" y="17.02838063439065" width="14.674315352697093" height="11.719532554257096" as="geometry" />
        </mxCell>
        <mxCell id="jlA9GcEc_NJZAZGfo52G-7" value="" style="shape=stencil(lVfLctswDPwaXTEkwOc5Tf8jM3FqTV0747ivvy80KtWAlLeTmyxzAQJYLKBJHt6OT6+Hid3b7Xr5evg5P9+Ok3yamOfz8XCdb/o0yeMkDy+X6+HL9fL9/Lz+fn1aTi5P3y4/Fgu/VlwoVPKCYvd7fcOO3Prm8wo4zef3gNwDfCZ2AMBUkgUEqv4+QNRe50GoCgCovdQDEgOAoyIWwBTDfQAnEu4BvgKAp+I+4sEXcvEjMWgSuVpAbCb2AZ649IWL6T6gULI3UmZkEHMiZ3PEgTIqG2VbNa4kwL6m1N5fInlg35HY88E1Jt4572zJQqIKEqrZsPmJQgHwmoltvLGSB5QIFL05nyIxiFcb0xIiO6qgk5WR2SYoJ8qgk0eOFt9yth+xUth6KJESKIFyrnYeKiWkFdoFNkmVW2/vAyoFKy41wqCDkqzzkCkAmsaBd1WjAp0cY0+MqkEDYiRHvtMK52AhlDnB9y7+qsE+l1xfOQ2CQSFypBosQPUAqYtvU2MDCEXQbkod6Ty4psr7AG0v66Eov0FelTpdqQs3Gd8HhGZv66ACuaE5SVYjs2oGqINm3VtAUg8grXWY50lwDEqETsawLC3ktFeKgQoabW5QVu0RNAxHFyrFjABD1ME3Pu4Dcl85KSSAfXW7wAbQ4gN1VW6I7WrxOOiBfaqG/+F36Qa0bgCAfUr/YmNYZirqURn2pAp1pmilux0jwRmdx8UKrz15XKy2ObwvfamJ79bUkEqJydmYE0xqTG1p2epMBan9MB48BZChMPCol3p9+Lfdv8yn0/px8P7//mtAX61fEvL4Bw==);fillColor=none;" parent="jlA9GcEc_NJZAZGfo52G-5" vertex="1">
          <mxGeometry x="54.390124481327796" y="16.026711185308848" width="13.322074688796679" height="13.973288814691152" as="geometry" />
        </mxCell>
        <mxCell id="jlA9GcEc_NJZAZGfo52G-8" value="" style="shape=stencil(lVvZchs3EPwavaJwH8+O8x+ushyr4lguWbn+Po2osBQaZIP7JpHTuwDm6pkBH8KHn18//Xh88Pbn68vz749/P31+/foQfnnw/un718eXp1f89RA+PoQPX55fHn97ef7z++e3/3986pL9rz+e/+pP+OcNV0xqHeTtv28ftGhq+P+TX9/kvz19n+SdOyOfTYpn5JNp+Zx8PrX+ZNyp50eT/Tl5e2o9waRT6wnG1jPy3uRT+vLGhTPyzuRT63fGL/YQ7W15ayqdZzAlKXm2Z5xAUfKB1u9MqErezedf2ziBG/J2fn4tpngpb2f5NCzkTvlgXDsj74wV+lrkSzVVng/LZ9PiGfk0PrlTPhiv1zOff4F+5Xrc7O+5beyT7CEXE6W+wrz+DP1Ke4iz/2ZEDLlfsv8MD5X7LWWST80UsV9Yy7yeBHsW+138PWVpb87E+TxTNMEp+TLrK/lxAjfkKb8kRBixfj/ePuRjNUWsx5syx8+Ypb3Bemd7iME0Ea+CyfP5RCf3G41Lk3xoQ4O38t38/JBNFPaZhvcd8siAIj4jv8/2GaBxsd88rHfI+ybtoRg/P//CcG7IN3o+GIVYfzV51hc00sT5NOPn84eFRLH+xvYJD23K/i0bnNMByx357QBUE8QOnGdK48pw6luAOp+Ry4N1XQcgpM1ByKURJq8D4vCpAwAWoZaUOKzjnUWFicS8A4Cg9pA5EOEYVKLHIabEACs8oauJFKdDOwyBfB8Ar2ypDVM+AHa46/VgZwcXewdQbMU7dmcAnKKjfkSHg5/J9ARvpPzaRkK5Lh8XvivDF+TJP+soEK7Lw44iySt6hnhXZrvT6RVfU7wuo+C6Ll9NciQf1Pk3VthRAF5PT3ZEz4N/mCb0hehP/GMj78fXd8pDv/GMfBrHcad85vpzIw/1n9pv43yj5cEGlv1mYf/RD/ZzkffC/mPk/cLAhf2D/bRE8k4EudgWPmSSKucd23OQ5Uk6vr7Ie/X8PNz1yMeSTqRqIuV7mfqyHeHsCIiyXMp+VNcXeZVlclyyzDiw6/JQP6XiQaiuy9cRLi/yVpw/qqky60vTb1RrtH4r6RmqQfJfFFCqnQX+6knei/MshYmEleUqqmWKV/r51Q72f99+K+zBnTj/Gjk+a/upmfMjCiLhv727Mctr/6qVKYcu95rlekPHn+ZGtXxf/mqe6+eq6Xrg/uaG0PR2FzmwM1VouKXBzu+kri0vtC8NpdwCMO0rsmfWCge5Tc0BQCMr0l2YVpngw45U2Q1AobopycDSGjeyoWllqQBQJwZcR5peY1MKQdtS4z2AXSi+DgAnM92MdHZpn8VgnKq0riB0QwOLoooaOb2IkNR3MZtf0jGjNc6ZyNKqh7BqYtPkWnWddTEHgCfamEbVfAtAeTNvfK6aSsSxyUZ79wjqlIJaKD3UJVRuWht1OP273q30ucrJFum0Kj2AXVD10SQdRKChU6q6vQRAnhW36Z+vsa8m7Q9l+PABKLJj3cPxMmJQnAEA6rcg6ynSCQAPnfxod9wCUA5CGssqMuVlDJYHcbqV5ep8rP2g1RsSE8NuXepYE1cWrWrzjsMhD0AzQWXqwLVODzzK+AIPD9omVHqOS+/i8538Z4tYejqbRcE6qYTcbBsAG84cbK2L+ekmfC2L6uqYA90CWHpDlsESvJjmArAvFWgQJaiQ3wwya+RKD9pXkxMAiNF0zaglBSZZm9kkig0qtjfDSQRfCjR4hJpuoPyhdlbVJAv5gOqNzXwSX9PAupd0qgIt3IFElpMlZWYuUI4m1HVA5Bqu+NE1vLPI3aT2sky9LnX1dYBlawVAxW+QEU99Sz23yJWttb9TdRrKIKr3AjKHmR1gyRA7QBy18L2AsBzrBuC5XbIDOJ5b7PRgma5vNA3qTBO8jS2ltrA+Pw76zh7axh9SYfKwYa4AePIHfesABQa/Ics+Wq9I6JTqSDG3ADQo7KFNbTrzTaAN1U2JW1EbqgtAoTck2dsAIC+XXdRICwDqnmyoLgDrdR0VvQGwxAQ01U1Hv/kd1VW9jbWj3JJ0UQCo9NtwjeS4e7JhM2nJohu+tHbde3tEGF8sC5vRFC5mbiNsSGKMTFw3NDQGrrN2TDc67rVuEZaneTtEaMtYeIeoS4d/j6A7TlvEcktii8jLiH6HSNxV3GgcAL+QdmW1IY4A+a5mVIkFAK4jNGkPYalKdbsMAGIEKKfU9S4AqPDYcPDglxgbZS8LAJpggYPLEe4ykt1kIgCojN20dYK9QqnlJaylRQjOrGzJVw6Zm2uCfcxONEiTlH6xeWHIqg/kE1eMxUrj61eJT3X8+t1gywCVuvqssTHAqVOy3JoCjVf1XJ+OtTMA1/iSyw5Q+cLEZg8A8IR8c2Gq8MRmo4f1KhA07fXdIb7Uqll+vx5FZFEbn4uLA+mKcb1hBX/IatOBO68bjwMgZgYo0u7CUgDqINAvYNEedOUOQCDSnuX02y0MYtNM6De2SA966tRvbNEp6fuPznLKqnbs6haAzBt1hLoyAgAXHrqps1Cgqq+ItmVBmw47j6hrlvfiFoJV65iY3pBfixTZV1uuoOmfFCz0bUMyCvvypuDY/8QHf1x+H/Tl6du3t58Xvf+ef0+Ej95+ixQ+/gc=);fillColor=none;" parent="jlA9GcEc_NJZAZGfo52G-5" vertex="1">
          <mxGeometry width="84.49" height="23.23873121869783" as="geometry" />
        </mxCell>
        <mxCell id="jlA9GcEc_NJZAZGfo52G-17" style="edgeStyle=orthogonalEdgeStyle;rounded=0;orthogonalLoop=1;jettySize=auto;html=1;dashed=1;" parent="1" source="jlA9GcEc_NJZAZGfo52G-9" target="aRcXMA_YCSUUPR6hCGXh-46" edge="1">
          <mxGeometry relative="1" as="geometry">
            <mxPoint x="686" y="1139.457142857143" as="targetPoint" />
          </mxGeometry>
        </mxCell>
        <mxCell id="jlA9GcEc_NJZAZGfo52G-9" value="Broker" style="shape=cylinder3;whiteSpace=wrap;html=1;boundedLbl=1;backgroundOutline=1;size=15;rotation=90;" parent="1" vertex="1">
          <mxGeometry x="492" y="1076.97" width="37.5" height="125" as="geometry" />
        </mxCell>
        <mxCell id="jlA9GcEc_NJZAZGfo52G-10" style="edgeStyle=none;rounded=0;orthogonalLoop=1;jettySize=auto;html=1;entryX=0.5;entryY=1;entryDx=0;entryDy=0;entryPerimeter=0;dashed=1;" parent="1" source="jlA9GcEc_NJZAZGfo52G-4" target="jlA9GcEc_NJZAZGfo52G-9" edge="1">
          <mxGeometry relative="1" as="geometry">
            <mxPoint x="472" y="1141.97" as="targetPoint" />
          </mxGeometry>
        </mxCell>
        <mxCell id="jlA9GcEc_NJZAZGfo52G-11" style="edgeStyle=none;rounded=0;orthogonalLoop=1;jettySize=auto;html=1;entryX=0.5;entryY=1;entryDx=0;entryDy=0;entryPerimeter=0;dashed=1;" parent="1" source="jlA9GcEc_NJZAZGfo52G-8" target="jlA9GcEc_NJZAZGfo52G-9" edge="1">
          <mxGeometry relative="1" as="geometry">
            <mxPoint x="364.4020222170525" y="1115.208731218698" as="sourcePoint" />
          </mxGeometry>
        </mxCell>
        <mxCell id="jlA9GcEc_NJZAZGfo52G-12" value="Implemenation 3a" style="text;html=1;strokeColor=none;fillColor=none;align=center;verticalAlign=middle;whiteSpace=wrap;rounded=0;" parent="1" vertex="1">
          <mxGeometry x="276" y="1040" width="116" height="30" as="geometry" />
        </mxCell>
        <mxCell id="aRcXMA_YCSUUPR6hCGXh-9" style="edgeStyle=orthogonalEdgeStyle;rounded=0;orthogonalLoop=1;jettySize=auto;html=1;endArrow=block;endFill=0;" edge="1" parent="1" source="aRcXMA_YCSUUPR6hCGXh-6" target="58xph6KQq2uh9m1sD0tC-1">
          <mxGeometry relative="1" as="geometry" />
        </mxCell>
        <mxCell id="aRcXMA_YCSUUPR6hCGXh-18" value="implements" style="edgeLabel;html=1;align=center;verticalAlign=middle;resizable=0;points=[];" vertex="1" connectable="0" parent="aRcXMA_YCSUUPR6hCGXh-9">
          <mxGeometry x="-0.1721" relative="1" as="geometry">
            <mxPoint x="-52" y="19" as="offset" />
          </mxGeometry>
        </mxCell>
        <mxCell id="aRcXMA_YCSUUPR6hCGXh-6" value="ExampleEPPSource" style="swimlane;fontStyle=0;childLayout=stackLayout;horizontal=1;startSize=26;fillColor=none;horizontalStack=0;resizeParent=1;resizeParentMax=0;resizeLast=0;collapsible=1;marginBottom=0;" vertex="1" parent="1">
          <mxGeometry x="786" y="340" width="190" height="52" as="geometry" />
        </mxCell>
        <mxCell id="aRcXMA_YCSUUPR6hCGXh-7" value="+ method: execute" style="text;strokeColor=none;fillColor=none;align=left;verticalAlign=top;spacingLeft=4;spacingRight=4;overflow=hidden;rotatable=0;points=[[0,0.5],[1,0.5]];portConstraint=eastwest;" vertex="1" parent="aRcXMA_YCSUUPR6hCGXh-6">
          <mxGeometry y="26" width="190" height="26" as="geometry" />
        </mxCell>
        <mxCell id="aRcXMA_YCSUUPR6hCGXh-14" style="edgeStyle=orthogonalEdgeStyle;rounded=0;orthogonalLoop=1;jettySize=auto;html=1;endArrow=block;endFill=0;" edge="1" parent="1" source="aRcXMA_YCSUUPR6hCGXh-10" target="58xph6KQq2uh9m1sD0tC-1">
          <mxGeometry relative="1" as="geometry" />
        </mxCell>
        <mxCell id="aRcXMA_YCSUUPR6hCGXh-19" value="implements" style="edgeLabel;html=1;align=center;verticalAlign=middle;resizable=0;points=[];" vertex="1" connectable="0" parent="aRcXMA_YCSUUPR6hCGXh-14">
          <mxGeometry x="-0.4722" y="-3" relative="1" as="geometry">
            <mxPoint x="-3" y="11" as="offset" />
          </mxGeometry>
        </mxCell>
        <mxCell id="aRcXMA_YCSUUPR6hCGXh-10" value="ExampleEPPStage" style="swimlane;fontStyle=0;childLayout=stackLayout;horizontal=1;startSize=26;fillColor=none;horizontalStack=0;resizeParent=1;resizeParentMax=0;resizeLast=0;collapsible=1;marginBottom=0;" vertex="1" parent="1">
          <mxGeometry x="986" y="340" width="190" height="52" as="geometry" />
        </mxCell>
        <mxCell id="aRcXMA_YCSUUPR6hCGXh-11" value="+ method: execute" style="text;strokeColor=none;fillColor=none;align=left;verticalAlign=top;spacingLeft=4;spacingRight=4;overflow=hidden;rotatable=0;points=[[0,0.5],[1,0.5]];portConstraint=eastwest;" vertex="1" parent="aRcXMA_YCSUUPR6hCGXh-10">
          <mxGeometry y="26" width="190" height="26" as="geometry" />
        </mxCell>
        <mxCell id="aRcXMA_YCSUUPR6hCGXh-15" style="edgeStyle=orthogonalEdgeStyle;rounded=0;orthogonalLoop=1;jettySize=auto;html=1;endArrow=block;endFill=0;" edge="1" parent="1" source="aRcXMA_YCSUUPR6hCGXh-12" target="58xph6KQq2uh9m1sD0tC-1">
          <mxGeometry relative="1" as="geometry">
            <Array as="points">
              <mxPoint x="1284" y="290" />
              <mxPoint x="1027" y="290" />
            </Array>
          </mxGeometry>
        </mxCell>
        <mxCell id="aRcXMA_YCSUUPR6hCGXh-20" value="implements" style="edgeLabel;html=1;align=center;verticalAlign=middle;resizable=0;points=[];" vertex="1" connectable="0" parent="aRcXMA_YCSUUPR6hCGXh-15">
          <mxGeometry x="-0.777" relative="1" as="geometry">
            <mxPoint y="10" as="offset" />
          </mxGeometry>
        </mxCell>
        <mxCell id="aRcXMA_YCSUUPR6hCGXh-12" value="ExampleEPPSink" style="swimlane;fontStyle=0;childLayout=stackLayout;horizontal=1;startSize=26;fillColor=none;horizontalStack=0;resizeParent=1;resizeParentMax=0;resizeLast=0;collapsible=1;marginBottom=0;" vertex="1" parent="1">
          <mxGeometry x="1189" y="340" width="190" height="52" as="geometry" />
        </mxCell>
        <mxCell id="aRcXMA_YCSUUPR6hCGXh-13" value="+ method: execute" style="text;strokeColor=none;fillColor=none;align=left;verticalAlign=top;spacingLeft=4;spacingRight=4;overflow=hidden;rotatable=0;points=[[0,0.5],[1,0.5]];portConstraint=eastwest;" vertex="1" parent="aRcXMA_YCSUUPR6hCGXh-12">
          <mxGeometry y="26" width="190" height="26" as="geometry" />
        </mxCell>
        <mxCell id="aRcXMA_YCSUUPR6hCGXh-24" value="implements" style="edgeLabel;html=1;align=center;verticalAlign=middle;resizable=0;points=[];" vertex="1" connectable="0" parent="1">
          <mxGeometry x="758.666666666667" y="800" as="geometry" />
        </mxCell>
        <mxCell id="aRcXMA_YCSUUPR6hCGXh-33" style="edgeStyle=orthogonalEdgeStyle;rounded=0;orthogonalLoop=1;jettySize=auto;html=1;endArrow=block;endFill=0;" edge="1" parent="1" source="aRcXMA_YCSUUPR6hCGXh-25" target="E73d9f6wTJtsomJWeAMY-32">
          <mxGeometry relative="1" as="geometry">
            <Array as="points">
              <mxPoint x="758.5" y="790" />
              <mxPoint x="938.5" y="790" />
            </Array>
          </mxGeometry>
        </mxCell>
        <mxCell id="aRcXMA_YCSUUPR6hCGXh-25" value="ExampleEPPSource" style="swimlane;fontStyle=0;childLayout=stackLayout;horizontal=1;startSize=26;fillColor=none;horizontalStack=0;resizeParent=1;resizeParentMax=0;resizeLast=0;collapsible=1;marginBottom=0;" vertex="1" parent="1">
          <mxGeometry x="663.5" y="830.5" width="190" height="52" as="geometry" />
        </mxCell>
        <mxCell id="aRcXMA_YCSUUPR6hCGXh-26" value="+ method: execute" style="text;strokeColor=none;fillColor=none;align=left;verticalAlign=top;spacingLeft=4;spacingRight=4;overflow=hidden;rotatable=0;points=[[0,0.5],[1,0.5]];portConstraint=eastwest;" vertex="1" parent="aRcXMA_YCSUUPR6hCGXh-25">
          <mxGeometry y="26" width="190" height="26" as="geometry" />
        </mxCell>
        <mxCell id="aRcXMA_YCSUUPR6hCGXh-27" value="implements" style="edgeLabel;html=1;align=center;verticalAlign=middle;resizable=0;points=[];" vertex="1" connectable="0" parent="1">
          <mxGeometry x="958.5" y="801.5" as="geometry" />
        </mxCell>
        <mxCell id="aRcXMA_YCSUUPR6hCGXh-34" style="edgeStyle=orthogonalEdgeStyle;rounded=0;orthogonalLoop=1;jettySize=auto;html=1;endArrow=block;endFill=0;" edge="1" parent="1" source="aRcXMA_YCSUUPR6hCGXh-28" target="E73d9f6wTJtsomJWeAMY-32">
          <mxGeometry relative="1" as="geometry">
            <Array as="points">
              <mxPoint x="958.5" y="790" />
              <mxPoint x="938.5" y="790" />
            </Array>
          </mxGeometry>
        </mxCell>
        <mxCell id="aRcXMA_YCSUUPR6hCGXh-28" value="ExampleEPPStage" style="swimlane;fontStyle=0;childLayout=stackLayout;horizontal=1;startSize=26;fillColor=none;horizontalStack=0;resizeParent=1;resizeParentMax=0;resizeLast=0;collapsible=1;marginBottom=0;" vertex="1" parent="1">
          <mxGeometry x="863.5" y="830.5" width="190" height="52" as="geometry" />
        </mxCell>
        <mxCell id="aRcXMA_YCSUUPR6hCGXh-29" value="+ method: execute" style="text;strokeColor=none;fillColor=none;align=left;verticalAlign=top;spacingLeft=4;spacingRight=4;overflow=hidden;rotatable=0;points=[[0,0.5],[1,0.5]];portConstraint=eastwest;" vertex="1" parent="aRcXMA_YCSUUPR6hCGXh-28">
          <mxGeometry y="26" width="190" height="26" as="geometry" />
        </mxCell>
        <mxCell id="aRcXMA_YCSUUPR6hCGXh-30" value="implements" style="edgeLabel;html=1;align=center;verticalAlign=middle;resizable=0;points=[];" vertex="1" connectable="0" parent="1">
          <mxGeometry x="1161.5" y="800.5" as="geometry" />
        </mxCell>
        <mxCell id="aRcXMA_YCSUUPR6hCGXh-35" style="edgeStyle=orthogonalEdgeStyle;rounded=0;orthogonalLoop=1;jettySize=auto;html=1;endArrow=block;endFill=0;" edge="1" parent="1" source="aRcXMA_YCSUUPR6hCGXh-31" target="E73d9f6wTJtsomJWeAMY-32">
          <mxGeometry relative="1" as="geometry">
            <Array as="points">
              <mxPoint x="1161.5" y="790" />
              <mxPoint x="938.5" y="790" />
            </Array>
          </mxGeometry>
        </mxCell>
        <mxCell id="aRcXMA_YCSUUPR6hCGXh-31" value="ExampleEPPSink" style="swimlane;fontStyle=0;childLayout=stackLayout;horizontal=1;startSize=26;fillColor=none;horizontalStack=0;resizeParent=1;resizeParentMax=0;resizeLast=0;collapsible=1;marginBottom=0;" vertex="1" parent="1">
          <mxGeometry x="1066.5" y="830.5" width="190" height="52" as="geometry" />
        </mxCell>
        <mxCell id="aRcXMA_YCSUUPR6hCGXh-32" value="+ method: execute" style="text;strokeColor=none;fillColor=none;align=left;verticalAlign=top;spacingLeft=4;spacingRight=4;overflow=hidden;rotatable=0;points=[[0,0.5],[1,0.5]];portConstraint=eastwest;" vertex="1" parent="aRcXMA_YCSUUPR6hCGXh-31">
          <mxGeometry y="26" width="190" height="26" as="geometry" />
        </mxCell>
        <mxCell id="aRcXMA_YCSUUPR6hCGXh-43" style="orthogonalLoop=1;jettySize=auto;html=1;dashed=1;endArrow=classic;endFill=1;rounded=0;" edge="1" parent="1" source="aRcXMA_YCSUUPR6hCGXh-45" target="aRcXMA_YCSUUPR6hCGXh-44">
          <mxGeometry relative="1" as="geometry">
            <mxPoint x="1053.9153217772466" y="1116.74" as="sourcePoint" />
            <mxPoint x="957.7722961664144" y="1040" as="targetPoint" />
          </mxGeometry>
        </mxCell>
        <mxCell id="aRcXMA_YCSUUPR6hCGXh-63" value="uses" style="edgeLabel;html=1;align=center;verticalAlign=middle;resizable=0;points=[];" vertex="1" connectable="0" parent="aRcXMA_YCSUUPR6hCGXh-43">
          <mxGeometry x="0.4366" relative="1" as="geometry">
            <mxPoint as="offset" />
          </mxGeometry>
        </mxCell>
        <mxCell id="aRcXMA_YCSUUPR6hCGXh-44" value="AggregationService" style="shape=module;align=left;spacingLeft=20;align=center;verticalAlign=top;" vertex="1" parent="1">
          <mxGeometry x="1020" y="990" width="150" height="50" as="geometry" />
        </mxCell>
        <mxCell id="aRcXMA_YCSUUPR6hCGXh-48" style="edgeStyle=orthogonalEdgeStyle;rounded=0;orthogonalLoop=1;jettySize=auto;html=1;dashed=1;endArrow=classic;endFill=1;" edge="1" parent="1" source="aRcXMA_YCSUUPR6hCGXh-45">
          <mxGeometry relative="1" as="geometry">
            <mxPoint x="1060" y="1245.4199999999998" as="sourcePoint" />
            <mxPoint x="842" y="1137.97" as="targetPoint" />
            <Array as="points">
              <mxPoint x="900" y="1245" />
              <mxPoint x="900" y="1138" />
            </Array>
          </mxGeometry>
        </mxCell>
        <mxCell id="aRcXMA_YCSUUPR6hCGXh-50" value="registers" style="edgeLabel;html=1;align=center;verticalAlign=middle;resizable=0;points=[];" vertex="1" connectable="0" parent="aRcXMA_YCSUUPR6hCGXh-48">
          <mxGeometry x="0.3121" y="3" relative="1" as="geometry">
            <mxPoint x="36" y="56" as="offset" />
          </mxGeometry>
        </mxCell>
        <mxCell id="aRcXMA_YCSUUPR6hCGXh-129" style="edgeStyle=orthogonalEdgeStyle;rounded=0;orthogonalLoop=1;jettySize=auto;html=1;dashed=1;endArrow=classic;endFill=1;" edge="1" parent="1" source="aRcXMA_YCSUUPR6hCGXh-46" target="aRcXMA_YCSUUPR6hCGXh-45">
          <mxGeometry relative="1" as="geometry">
            <Array as="points">
              <mxPoint x="880" y="1150" />
              <mxPoint x="880" y="1290" />
            </Array>
          </mxGeometry>
        </mxCell>
        <mxCell id="aRcXMA_YCSUUPR6hCGXh-130" value="sets configuration" style="edgeLabel;html=1;align=center;verticalAlign=middle;resizable=0;points=[];" vertex="1" connectable="0" parent="aRcXMA_YCSUUPR6hCGXh-129">
          <mxGeometry x="0.027" y="-3" relative="1" as="geometry">
            <mxPoint as="offset" />
          </mxGeometry>
        </mxCell>
        <mxCell id="aRcXMA_YCSUUPR6hCGXh-135" style="edgeStyle=orthogonalEdgeStyle;rounded=0;orthogonalLoop=1;jettySize=auto;html=1;exitX=1;exitY=0.25;exitDx=0;exitDy=0;startArrow=none;startFill=0;endArrow=open;endFill=0;strokeWidth=1;" edge="1" parent="1" source="aRcXMA_YCSUUPR6hCGXh-46" target="aRcXMA_YCSUUPR6hCGXh-45">
          <mxGeometry relative="1" as="geometry">
            <mxPoint x="1080" y="1190" as="targetPoint" />
            <Array as="points">
              <mxPoint x="970" y="1127" />
              <mxPoint x="970" y="1190" />
            </Array>
          </mxGeometry>
        </mxCell>
        <mxCell id="aRcXMA_YCSUUPR6hCGXh-136" value="0..n" style="edgeLabel;html=1;align=center;verticalAlign=middle;resizable=0;points=[];" vertex="1" connectable="0" parent="aRcXMA_YCSUUPR6hCGXh-135">
          <mxGeometry x="0.0556" y="-2" relative="1" as="geometry">
            <mxPoint x="-104" y="-32" as="offset" />
          </mxGeometry>
        </mxCell>
        <mxCell id="aRcXMA_YCSUUPR6hCGXh-46" value="ManagerService" style="shape=module;align=left;spacingLeft=20;align=center;verticalAlign=top;" vertex="1" parent="1">
          <mxGeometry x="692" y="1114.48" width="150" height="50" as="geometry" />
        </mxCell>
        <mxCell id="aRcXMA_YCSUUPR6hCGXh-88" value="" style="group" vertex="1" connectable="0" parent="1">
          <mxGeometry x="288" y="1597.97" width="84.49" height="30" as="geometry" />
        </mxCell>
        <mxCell id="aRcXMA_YCSUUPR6hCGXh-89" value="" style="shape=stencil(jVbLctswDPwaXXdIgiTIc5r+R2bi1Jq6dsZx+vj7wlWlGogE9yZLC5pY7AIY6OFt//S6G1J4u5xPX3c/xufLfqBPQ0rjcb87jxd5GuhxoIeX03n35Xx6Pz5Pv1+frsjr07fT9+sJP6e4nlHyNSqFX9ObhlL+vPg84Q/j8RZPqKTwFYkdfEBkhS+ItI1vBUXj5Q+rg08oXeETet/Gc0UuCh/BcRtfO2pS+IDm8FMjQjf4ELbxJSHZ8z18pvnz/92HCDEaPj389bO+f0N36hsLWN8niqKcAneUqusV0LOTMKI+Xy5UnfOFf80nVbCTcLB85gJyChBBRs++oDO4ab8Qkmcwyw8HFEegUgCTMDPIq3BE1P/QCOxYLPHsqCWgzSJZ15wwoj0mXaM4ATmia5I6IzhJ54asc+gNnBybZVRtgxh8o300cu9zWusBjJRtEs3hlcXKJkDM5EiJhfZseY1ecyR0Q9PSjtcDhEUzDQq6w1JPttQtgL15UGy/Y3njlLpXdD1wxBDBEZMoIenC1TsdqYP0lYrf8ySgaloLITvqu9Ha0mV8baxF+LVeiSDfph/ToDwPuy1mjU3pTrGlc2h1SC/52w63im2nufRPL4eMpq+UloG6Jdim5ZTuyCkga0vEJat1D/G8UCwBde4M6wHZ0npnhMrOk8wO488UlqGiFR6jq3DZkljXIQYkr5dlBDNUzBopD/920JfxcJhW2NvvdmeVV9O+S4+/AQ==);fillColor=none;" vertex="1" parent="aRcXMA_YCSUUPR6hCGXh-88">
          <mxGeometry x="9.365518672199169" y="17.02838063439065" width="14.674315352697093" height="11.719532554257096" as="geometry" />
        </mxCell>
        <mxCell id="aRcXMA_YCSUUPR6hCGXh-90" value="" style="shape=stencil(lVfLctswDPwaXTEkwOc5Tf8jM3FqTV0747ivvy80KtWAlLeTmyxzAQJYLKBJHt6OT6+Hid3b7Xr5evg5P9+Ok3yamOfz8XCdb/o0yeMkDy+X6+HL9fL9/Lz+fn1aTi5P3y4/Fgu/VlwoVPKCYvd7fcOO3Prm8wo4zef3gNwDfCZ2AMBUkgUEqv4+QNRe50GoCgCovdQDEgOAoyIWwBTDfQAnEu4BvgKAp+I+4sEXcvEjMWgSuVpAbCb2AZ649IWL6T6gULI3UmZkEHMiZ3PEgTIqG2VbNa4kwL6m1N5fInlg35HY88E1Jt4572zJQqIKEqrZsPmJQgHwmoltvLGSB5QIFL05nyIxiFcb0xIiO6qgk5WR2SYoJ8qgk0eOFt9yth+xUth6KJESKIFyrnYeKiWkFdoFNkmVW2/vAyoFKy41wqCDkqzzkCkAmsaBd1WjAp0cY0+MqkEDYiRHvtMK52AhlDnB9y7+qsE+l1xfOQ2CQSFypBosQPUAqYtvU2MDCEXQbkod6Ty4psr7AG0v66Eov0FelTpdqQs3Gd8HhGZv66ACuaE5SVYjs2oGqINm3VtAUg8grXWY50lwDEqETsawLC3ktFeKgQoabW5QVu0RNAxHFyrFjABD1ME3Pu4Dcl85KSSAfXW7wAbQ4gN1VW6I7WrxOOiBfaqG/+F36Qa0bgCAfUr/YmNYZirqURn2pAp1pmilux0jwRmdx8UKrz15XKy2ObwvfamJ79bUkEqJydmYE0xqTG1p2epMBan9MB48BZChMPCol3p9+Lfdv8yn0/px8P7//mtAX61fEvL4Bw==);fillColor=none;" vertex="1" parent="aRcXMA_YCSUUPR6hCGXh-88">
          <mxGeometry x="54.390124481327796" y="16.026711185308848" width="13.322074688796679" height="13.973288814691152" as="geometry" />
        </mxCell>
        <mxCell id="aRcXMA_YCSUUPR6hCGXh-91" value="" style="shape=stencil(lVvZchs3EPwavaJwH8+O8x+ushyr4lguWbn+Po2osBQaZIP7JpHTuwDm6pkBH8KHn18//Xh88Pbn68vz749/P31+/foQfnnw/un718eXp1f89RA+PoQPX55fHn97ef7z++e3/3986pL9rz+e/+pP+OcNV0xqHeTtv28ftGhq+P+TX9/kvz19n+SdOyOfTYpn5JNp+Zx8PrX+ZNyp50eT/Tl5e2o9waRT6wnG1jPy3uRT+vLGhTPyzuRT63fGL/YQ7W15ayqdZzAlKXm2Z5xAUfKB1u9MqErezedf2ziBG/J2fn4tpngpb2f5NCzkTvlgXDsj74wV+lrkSzVVng/LZ9PiGfk0PrlTPhiv1zOff4F+5Xrc7O+5beyT7CEXE6W+wrz+DP1Ke4iz/2ZEDLlfsv8MD5X7LWWST80UsV9Yy7yeBHsW+138PWVpb87E+TxTNMEp+TLrK/lxAjfkKb8kRBixfj/ePuRjNUWsx5syx8+Ypb3Bemd7iME0Ea+CyfP5RCf3G41Lk3xoQ4O38t38/JBNFPaZhvcd8siAIj4jv8/2GaBxsd88rHfI+ybtoRg/P//CcG7IN3o+GIVYfzV51hc00sT5NOPn84eFRLH+xvYJD23K/i0bnNMByx357QBUE8QOnGdK48pw6luAOp+Ry4N1XQcgpM1ByKURJq8D4vCpAwAWoZaUOKzjnUWFicS8A4Cg9pA5EOEYVKLHIabEACs8oauJFKdDOwyBfB8Ar2ypDVM+AHa46/VgZwcXewdQbMU7dmcAnKKjfkSHg5/J9ARvpPzaRkK5Lh8XvivDF+TJP+soEK7Lw44iySt6hnhXZrvT6RVfU7wuo+C6Ll9NciQf1Pk3VthRAF5PT3ZEz4N/mCb0hehP/GMj78fXd8pDv/GMfBrHcad85vpzIw/1n9pv43yj5cEGlv1mYf/RD/ZzkffC/mPk/cLAhf2D/bRE8k4EudgWPmSSKucd23OQ5Uk6vr7Ie/X8PNz1yMeSTqRqIuV7mfqyHeHsCIiyXMp+VNcXeZVlclyyzDiw6/JQP6XiQaiuy9cRLi/yVpw/qqky60vTb1RrtH4r6RmqQfJfFFCqnQX+6knei/MshYmEleUqqmWKV/r51Q72f99+K+zBnTj/Gjk+a/upmfMjCiLhv727Mctr/6qVKYcu95rlekPHn+ZGtXxf/mqe6+eq6Xrg/uaG0PR2FzmwM1VouKXBzu+kri0vtC8NpdwCMO0rsmfWCge5Tc0BQCMr0l2YVpngw45U2Q1AobopycDSGjeyoWllqQBQJwZcR5peY1MKQdtS4z2AXSi+DgAnM92MdHZpn8VgnKq0riB0QwOLoooaOb2IkNR3MZtf0jGjNc6ZyNKqh7BqYtPkWnWddTEHgCfamEbVfAtAeTNvfK6aSsSxyUZ79wjqlIJaKD3UJVRuWht1OP273q30ucrJFum0Kj2AXVD10SQdRKChU6q6vQRAnhW36Z+vsa8m7Q9l+PABKLJj3cPxMmJQnAEA6rcg6ynSCQAPnfxod9wCUA5CGssqMuVlDJYHcbqV5ep8rP2g1RsSE8NuXepYE1cWrWrzjsMhD0AzQWXqwLVODzzK+AIPD9omVHqOS+/i8538Z4tYejqbRcE6qYTcbBsAG84cbK2L+ekmfC2L6uqYA90CWHpDlsESvJjmArAvFWgQJaiQ3wwya+RKD9pXkxMAiNF0zaglBSZZm9kkig0qtjfDSQRfCjR4hJpuoPyhdlbVJAv5gOqNzXwSX9PAupd0qgIt3IFElpMlZWYuUI4m1HVA5Bqu+NE1vLPI3aT2sky9LnX1dYBlawVAxW+QEU99Sz23yJWttb9TdRrKIKr3AjKHmR1gyRA7QBy18L2AsBzrBuC5XbIDOJ5b7PRgma5vNA3qTBO8jS2ltrA+Pw76zh7axh9SYfKwYa4AePIHfesABQa/Ics+Wq9I6JTqSDG3ADQo7KFNbTrzTaAN1U2JW1EbqgtAoTck2dsAIC+XXdRICwDqnmyoLgDrdR0VvQGwxAQ01U1Hv/kd1VW9jbWj3JJ0UQCo9NtwjeS4e7JhM2nJohu+tHbde3tEGF8sC5vRFC5mbiNsSGKMTFw3NDQGrrN2TDc67rVuEZaneTtEaMtYeIeoS4d/j6A7TlvEcktii8jLiH6HSNxV3GgcAL+QdmW1IY4A+a5mVIkFAK4jNGkPYalKdbsMAGIEKKfU9S4AqPDYcPDglxgbZS8LAJpggYPLEe4ykt1kIgCojN20dYK9QqnlJaylRQjOrGzJVw6Zm2uCfcxONEiTlH6xeWHIqg/kE1eMxUrj61eJT3X8+t1gywCVuvqssTHAqVOy3JoCjVf1XJ+OtTMA1/iSyw5Q+cLEZg8A8IR8c2Gq8MRmo4f1KhA07fXdIb7Uqll+vx5FZFEbn4uLA+mKcb1hBX/IatOBO68bjwMgZgYo0u7CUgDqINAvYNEedOUOQCDSnuX02y0MYtNM6De2SA966tRvbNEp6fuPznLKqnbs6haAzBt1hLoyAgAXHrqps1Cgqq+ItmVBmw47j6hrlvfiFoJV65iY3pBfixTZV1uuoOmfFCz0bUMyCvvypuDY/8QHf1x+H/Tl6du3t58Xvf+ef0+Ej95+ixQ+/gc=);fillColor=none;" vertex="1" parent="aRcXMA_YCSUUPR6hCGXh-88">
          <mxGeometry width="84.49" height="23.23873121869783" as="geometry" />
        </mxCell>
        <mxCell id="aRcXMA_YCSUUPR6hCGXh-92" value="" style="group" vertex="1" connectable="0" parent="1">
          <mxGeometry x="288" y="1637.97" width="84.49" height="30" as="geometry" />
        </mxCell>
        <mxCell id="aRcXMA_YCSUUPR6hCGXh-93" value="" style="shape=stencil(jVbLctswDPwaXXdIgiTIc5r+R2bi1Jq6dsZx+vj7wlWlGogE9yZLC5pY7AIY6OFt//S6G1J4u5xPX3c/xufLfqBPQ0rjcb87jxd5GuhxoIeX03n35Xx6Pz5Pv1+frsjr07fT9+sJP6e4nlHyNSqFX9ObhlL+vPg84Q/j8RZPqKTwFYkdfEBkhS+ItI1vBUXj5Q+rg08oXeETet/Gc0UuCh/BcRtfO2pS+IDm8FMjQjf4ELbxJSHZ8z18pvnz/92HCDEaPj389bO+f0N36hsLWN8niqKcAneUqusV0LOTMKI+Xy5UnfOFf80nVbCTcLB85gJyChBBRs++oDO4ab8Qkmcwyw8HFEegUgCTMDPIq3BE1P/QCOxYLPHsqCWgzSJZ15wwoj0mXaM4ATmia5I6IzhJ54asc+gNnBybZVRtgxh8o300cu9zWusBjJRtEs3hlcXKJkDM5EiJhfZseY1ecyR0Q9PSjtcDhEUzDQq6w1JPttQtgL15UGy/Y3njlLpXdD1wxBDBEZMoIenC1TsdqYP0lYrf8ySgaloLITvqu9Ha0mV8baxF+LVeiSDfph/ToDwPuy1mjU3pTrGlc2h1SC/52w63im2nufRPL4eMpq+UloG6Jdim5ZTuyCkga0vEJat1D/G8UCwBde4M6wHZ0npnhMrOk8wO488UlqGiFR6jq3DZkljXIQYkr5dlBDNUzBopD/920JfxcJhW2NvvdmeVV9O+S4+/AQ==);fillColor=none;" vertex="1" parent="aRcXMA_YCSUUPR6hCGXh-92">
          <mxGeometry x="9.365518672199169" y="17.02838063439065" width="14.674315352697093" height="11.719532554257096" as="geometry" />
        </mxCell>
        <mxCell id="aRcXMA_YCSUUPR6hCGXh-94" value="" style="shape=stencil(lVfLctswDPwaXTEkwOc5Tf8jM3FqTV0747ivvy80KtWAlLeTmyxzAQJYLKBJHt6OT6+Hid3b7Xr5evg5P9+Ok3yamOfz8XCdb/o0yeMkDy+X6+HL9fL9/Lz+fn1aTi5P3y4/Fgu/VlwoVPKCYvd7fcOO3Prm8wo4zef3gNwDfCZ2AMBUkgUEqv4+QNRe50GoCgCovdQDEgOAoyIWwBTDfQAnEu4BvgKAp+I+4sEXcvEjMWgSuVpAbCb2AZ649IWL6T6gULI3UmZkEHMiZ3PEgTIqG2VbNa4kwL6m1N5fInlg35HY88E1Jt4572zJQqIKEqrZsPmJQgHwmoltvLGSB5QIFL05nyIxiFcb0xIiO6qgk5WR2SYoJ8qgk0eOFt9yth+xUth6KJESKIFyrnYeKiWkFdoFNkmVW2/vAyoFKy41wqCDkqzzkCkAmsaBd1WjAp0cY0+MqkEDYiRHvtMK52AhlDnB9y7+qsE+l1xfOQ2CQSFypBosQPUAqYtvU2MDCEXQbkod6Ty4psr7AG0v66Eov0FelTpdqQs3Gd8HhGZv66ACuaE5SVYjs2oGqINm3VtAUg8grXWY50lwDEqETsawLC3ktFeKgQoabW5QVu0RNAxHFyrFjABD1ME3Pu4Dcl85KSSAfXW7wAbQ4gN1VW6I7WrxOOiBfaqG/+F36Qa0bgCAfUr/YmNYZirqURn2pAp1pmilux0jwRmdx8UKrz15XKy2ObwvfamJ79bUkEqJydmYE0xqTG1p2epMBan9MB48BZChMPCol3p9+Lfdv8yn0/px8P7//mtAX61fEvL4Bw==);fillColor=none;" vertex="1" parent="aRcXMA_YCSUUPR6hCGXh-92">
          <mxGeometry x="54.390124481327796" y="16.026711185308848" width="13.322074688796679" height="13.973288814691152" as="geometry" />
        </mxCell>
        <mxCell id="aRcXMA_YCSUUPR6hCGXh-95" value="" style="shape=stencil(lVvZchs3EPwavaJwH8+O8x+ushyr4lguWbn+Po2osBQaZIP7JpHTuwDm6pkBH8KHn18//Xh88Pbn68vz749/P31+/foQfnnw/un718eXp1f89RA+PoQPX55fHn97ef7z++e3/3986pL9rz+e/+pP+OcNV0xqHeTtv28ftGhq+P+TX9/kvz19n+SdOyOfTYpn5JNp+Zx8PrX+ZNyp50eT/Tl5e2o9waRT6wnG1jPy3uRT+vLGhTPyzuRT63fGL/YQ7W15ayqdZzAlKXm2Z5xAUfKB1u9MqErezedf2ziBG/J2fn4tpngpb2f5NCzkTvlgXDsj74wV+lrkSzVVng/LZ9PiGfk0PrlTPhiv1zOff4F+5Xrc7O+5beyT7CEXE6W+wrz+DP1Ke4iz/2ZEDLlfsv8MD5X7LWWST80UsV9Yy7yeBHsW+138PWVpb87E+TxTNMEp+TLrK/lxAjfkKb8kRBixfj/ePuRjNUWsx5syx8+Ypb3Bemd7iME0Ea+CyfP5RCf3G41Lk3xoQ4O38t38/JBNFPaZhvcd8siAIj4jv8/2GaBxsd88rHfI+ybtoRg/P//CcG7IN3o+GIVYfzV51hc00sT5NOPn84eFRLH+xvYJD23K/i0bnNMByx357QBUE8QOnGdK48pw6luAOp+Ry4N1XQcgpM1ByKURJq8D4vCpAwAWoZaUOKzjnUWFicS8A4Cg9pA5EOEYVKLHIabEACs8oauJFKdDOwyBfB8Ar2ypDVM+AHa46/VgZwcXewdQbMU7dmcAnKKjfkSHg5/J9ARvpPzaRkK5Lh8XvivDF+TJP+soEK7Lw44iySt6hnhXZrvT6RVfU7wuo+C6Ll9NciQf1Pk3VthRAF5PT3ZEz4N/mCb0hehP/GMj78fXd8pDv/GMfBrHcad85vpzIw/1n9pv43yj5cEGlv1mYf/RD/ZzkffC/mPk/cLAhf2D/bRE8k4EudgWPmSSKucd23OQ5Uk6vr7Ie/X8PNz1yMeSTqRqIuV7mfqyHeHsCIiyXMp+VNcXeZVlclyyzDiw6/JQP6XiQaiuy9cRLi/yVpw/qqky60vTb1RrtH4r6RmqQfJfFFCqnQX+6knei/MshYmEleUqqmWKV/r51Q72f99+K+zBnTj/Gjk+a/upmfMjCiLhv727Mctr/6qVKYcu95rlekPHn+ZGtXxf/mqe6+eq6Xrg/uaG0PR2FzmwM1VouKXBzu+kri0vtC8NpdwCMO0rsmfWCge5Tc0BQCMr0l2YVpngw45U2Q1AobopycDSGjeyoWllqQBQJwZcR5peY1MKQdtS4z2AXSi+DgAnM92MdHZpn8VgnKq0riB0QwOLoooaOb2IkNR3MZtf0jGjNc6ZyNKqh7BqYtPkWnWddTEHgCfamEbVfAtAeTNvfK6aSsSxyUZ79wjqlIJaKD3UJVRuWht1OP273q30ucrJFum0Kj2AXVD10SQdRKChU6q6vQRAnhW36Z+vsa8m7Q9l+PABKLJj3cPxMmJQnAEA6rcg6ynSCQAPnfxod9wCUA5CGssqMuVlDJYHcbqV5ep8rP2g1RsSE8NuXepYE1cWrWrzjsMhD0AzQWXqwLVODzzK+AIPD9omVHqOS+/i8538Z4tYejqbRcE6qYTcbBsAG84cbK2L+ekmfC2L6uqYA90CWHpDlsESvJjmArAvFWgQJaiQ3wwya+RKD9pXkxMAiNF0zaglBSZZm9kkig0qtjfDSQRfCjR4hJpuoPyhdlbVJAv5gOqNzXwSX9PAupd0qgIt3IFElpMlZWYuUI4m1HVA5Bqu+NE1vLPI3aT2sky9LnX1dYBlawVAxW+QEU99Sz23yJWttb9TdRrKIKr3AjKHmR1gyRA7QBy18L2AsBzrBuC5XbIDOJ5b7PRgma5vNA3qTBO8jS2ltrA+Pw76zh7axh9SYfKwYa4AePIHfesABQa/Ics+Wq9I6JTqSDG3ADQo7KFNbTrzTaAN1U2JW1EbqgtAoTck2dsAIC+XXdRICwDqnmyoLgDrdR0VvQGwxAQ01U1Hv/kd1VW9jbWj3JJ0UQCo9NtwjeS4e7JhM2nJohu+tHbde3tEGF8sC5vRFC5mbiNsSGKMTFw3NDQGrrN2TDc67rVuEZaneTtEaMtYeIeoS4d/j6A7TlvEcktii8jLiH6HSNxV3GgcAL+QdmW1IY4A+a5mVIkFAK4jNGkPYalKdbsMAGIEKKfU9S4AqPDYcPDglxgbZS8LAJpggYPLEe4ykt1kIgCojN20dYK9QqnlJaylRQjOrGzJVw6Zm2uCfcxONEiTlH6xeWHIqg/kE1eMxUrj61eJT3X8+t1gywCVuvqssTHAqVOy3JoCjVf1XJ+OtTMA1/iSyw5Q+cLEZg8A8IR8c2Gq8MRmo4f1KhA07fXdIb7Uqll+vx5FZFEbn4uLA+mKcb1hBX/IatOBO68bjwMgZgYo0u7CUgDqINAvYNEedOUOQCDSnuX02y0MYtNM6De2SA966tRvbNEp6fuPznLKqnbs6haAzBt1hLoyAgAXHrqps1Cgqq+ItmVBmw47j6hrlvfiFoJV65iY3pBfixTZV1uuoOmfFCz0bUMyCvvypuDY/8QHf1x+H/Tl6du3t58Xvf+ef0+Ej95+ixQ+/gc=);fillColor=none;" vertex="1" parent="aRcXMA_YCSUUPR6hCGXh-92">
          <mxGeometry width="84.49" height="23.23873121869783" as="geometry" />
        </mxCell>
        <mxCell id="aRcXMA_YCSUUPR6hCGXh-96" style="edgeStyle=orthogonalEdgeStyle;rounded=0;orthogonalLoop=1;jettySize=auto;html=1;dashed=1;" edge="1" parent="1" source="aRcXMA_YCSUUPR6hCGXh-97" target="aRcXMA_YCSUUPR6hCGXh-107">
          <mxGeometry relative="1" as="geometry">
            <mxPoint x="692" y="1639.457142857143" as="targetPoint" />
          </mxGeometry>
        </mxCell>
        <mxCell id="aRcXMA_YCSUUPR6hCGXh-97" value="Broker" style="shape=cylinder3;whiteSpace=wrap;html=1;boundedLbl=1;backgroundOutline=1;size=15;rotation=90;" vertex="1" parent="1">
          <mxGeometry x="498" y="1576.97" width="37.5" height="125" as="geometry" />
        </mxCell>
        <mxCell id="aRcXMA_YCSUUPR6hCGXh-98" style="edgeStyle=none;rounded=0;orthogonalLoop=1;jettySize=auto;html=1;entryX=0.5;entryY=1;entryDx=0;entryDy=0;entryPerimeter=0;dashed=1;" edge="1" parent="1" source="aRcXMA_YCSUUPR6hCGXh-91" target="aRcXMA_YCSUUPR6hCGXh-97">
          <mxGeometry relative="1" as="geometry">
            <mxPoint x="478" y="1641.97" as="targetPoint" />
          </mxGeometry>
        </mxCell>
        <mxCell id="aRcXMA_YCSUUPR6hCGXh-99" style="edgeStyle=none;rounded=0;orthogonalLoop=1;jettySize=auto;html=1;entryX=0.5;entryY=1;entryDx=0;entryDy=0;entryPerimeter=0;dashed=1;" edge="1" parent="1" source="aRcXMA_YCSUUPR6hCGXh-95" target="aRcXMA_YCSUUPR6hCGXh-97">
          <mxGeometry relative="1" as="geometry">
            <mxPoint x="370.4020222170525" y="1615.208731218698" as="sourcePoint" />
          </mxGeometry>
        </mxCell>
        <mxCell id="aRcXMA_YCSUUPR6hCGXh-100" value="Implemenation 3b" style="text;html=1;strokeColor=none;fillColor=none;align=center;verticalAlign=middle;whiteSpace=wrap;rounded=0;" vertex="1" parent="1">
          <mxGeometry x="282" y="1540" width="116" height="30" as="geometry" />
        </mxCell>
        <mxCell id="aRcXMA_YCSUUPR6hCGXh-103" value="AggregationService" style="shape=module;align=left;spacingLeft=20;align=center;verticalAlign=top;" vertex="1" parent="1">
          <mxGeometry x="1032" y="2150" width="150" height="50" as="geometry" />
        </mxCell>
        <mxCell id="aRcXMA_YCSUUPR6hCGXh-157" style="edgeStyle=orthogonalEdgeStyle;rounded=0;orthogonalLoop=1;jettySize=auto;html=1;dashed=1;startArrow=none;startFill=0;endArrow=classic;endFill=1;strokeWidth=1;elbow=vertical;" edge="1" parent="1" source="aRcXMA_YCSUUPR6hCGXh-107" target="aRcXMA_YCSUUPR6hCGXh-127">
          <mxGeometry relative="1" as="geometry">
            <Array as="points">
              <mxPoint x="760" y="1720" />
              <mxPoint x="881" y="1720" />
            </Array>
          </mxGeometry>
        </mxCell>
        <mxCell id="aRcXMA_YCSUUPR6hCGXh-158" value="send event" style="edgeLabel;html=1;align=center;verticalAlign=middle;resizable=0;points=[];" vertex="1" connectable="0" parent="aRcXMA_YCSUUPR6hCGXh-157">
          <mxGeometry x="0.2882" y="-1" relative="1" as="geometry">
            <mxPoint as="offset" />
          </mxGeometry>
        </mxCell>
        <mxCell id="aRcXMA_YCSUUPR6hCGXh-107" value="ManagerService" style="shape=module;align=left;spacingLeft=20;align=center;verticalAlign=top;" vertex="1" parent="1">
          <mxGeometry x="670" y="1614.48" width="178" height="50" as="geometry" />
        </mxCell>
        <mxCell id="aRcXMA_YCSUUPR6hCGXh-137" style="rounded=0;orthogonalLoop=1;jettySize=auto;html=1;startArrow=none;startFill=0;endArrow=classic;endFill=1;strokeWidth=1;dashed=1;edgeStyle=orthogonalEdgeStyle;elbow=vertical;" edge="1" parent="1" source="aRcXMA_YCSUUPR6hCGXh-127" target="aRcXMA_YCSUUPR6hCGXh-107">
          <mxGeometry relative="1" as="geometry">
            <Array as="points">
              <mxPoint x="910" y="1700" />
              <mxPoint x="790" y="1700" />
            </Array>
          </mxGeometry>
        </mxCell>
        <mxCell id="aRcXMA_YCSUUPR6hCGXh-154" value="register" style="edgeLabel;html=1;align=center;verticalAlign=middle;resizable=0;points=[];" vertex="1" connectable="0" parent="aRcXMA_YCSUUPR6hCGXh-137">
          <mxGeometry x="0.2048" relative="1" as="geometry">
            <mxPoint as="offset" />
          </mxGeometry>
        </mxCell>
        <mxCell id="aRcXMA_YCSUUPR6hCGXh-147" style="edgeStyle=none;rounded=0;orthogonalLoop=1;jettySize=auto;html=1;dashed=1;startArrow=none;startFill=0;endArrow=classic;endFill=1;strokeWidth=1;" edge="1" parent="1" source="aRcXMA_YCSUUPR6hCGXh-127" target="aRcXMA_YCSUUPR6hCGXh-128">
          <mxGeometry relative="1" as="geometry" />
        </mxCell>
        <mxCell id="aRcXMA_YCSUUPR6hCGXh-159" value="send event" style="edgeLabel;html=1;align=center;verticalAlign=middle;resizable=0;points=[];" vertex="1" connectable="0" parent="aRcXMA_YCSUUPR6hCGXh-147">
          <mxGeometry x="-0.1674" y="-1" relative="1" as="geometry">
            <mxPoint as="offset" />
          </mxGeometry>
        </mxCell>
        <mxCell id="aRcXMA_YCSUUPR6hCGXh-127" value="EPPSourcesManagerService" style="shape=module;align=left;spacingLeft=20;align=center;verticalAlign=top;" vertex="1" parent="1">
          <mxGeometry x="750" y="1750" width="206" height="50" as="geometry" />
        </mxCell>
        <mxCell id="aRcXMA_YCSUUPR6hCGXh-138" style="rounded=0;orthogonalLoop=1;jettySize=auto;html=1;dashed=1;startArrow=none;startFill=0;endArrow=classic;endFill=1;strokeWidth=1;edgeStyle=orthogonalEdgeStyle;" edge="1" parent="1" source="aRcXMA_YCSUUPR6hCGXh-128" target="aRcXMA_YCSUUPR6hCGXh-107">
          <mxGeometry relative="1" as="geometry">
            <Array as="points">
              <mxPoint x="1160" y="1640" />
            </Array>
          </mxGeometry>
        </mxCell>
        <mxCell id="aRcXMA_YCSUUPR6hCGXh-155" value="register" style="edgeLabel;html=1;align=center;verticalAlign=middle;resizable=0;points=[];" vertex="1" connectable="0" parent="aRcXMA_YCSUUPR6hCGXh-138">
          <mxGeometry x="0.0733" y="-2" relative="1" as="geometry">
            <mxPoint as="offset" />
          </mxGeometry>
        </mxCell>
        <mxCell id="aRcXMA_YCSUUPR6hCGXh-167" style="edgeStyle=orthogonalEdgeStyle;rounded=0;orthogonalLoop=1;jettySize=auto;html=1;dashed=1;startArrow=none;startFill=0;endArrow=classic;endFill=1;strokeWidth=1;elbow=vertical;" edge="1" parent="1" source="aRcXMA_YCSUUPR6hCGXh-128" target="aRcXMA_YCSUUPR6hCGXh-148">
          <mxGeometry relative="1" as="geometry">
            <Array as="points">
              <mxPoint x="1090" y="1830" />
              <mxPoint x="870" y="1830" />
            </Array>
          </mxGeometry>
        </mxCell>
        <mxCell id="aRcXMA_YCSUUPR6hCGXh-168" value="send event" style="edgeLabel;html=1;align=center;verticalAlign=middle;resizable=0;points=[];" vertex="1" connectable="0" parent="aRcXMA_YCSUUPR6hCGXh-167">
          <mxGeometry x="0.7815" y="-1" relative="1" as="geometry">
            <mxPoint as="offset" />
          </mxGeometry>
        </mxCell>
        <mxCell id="aRcXMA_YCSUUPR6hCGXh-180" style="edgeStyle=orthogonalEdgeStyle;rounded=0;orthogonalLoop=1;jettySize=auto;html=1;dashed=1;startArrow=none;startFill=0;endArrow=classic;endFill=1;strokeWidth=1;elbow=vertical;" edge="1" parent="1" source="aRcXMA_YCSUUPR6hCGXh-128" target="aRcXMA_YCSUUPR6hCGXh-141">
          <mxGeometry relative="1" as="geometry" />
        </mxCell>
        <mxCell id="aRcXMA_YCSUUPR6hCGXh-181" value="send event" style="edgeLabel;html=1;align=center;verticalAlign=middle;resizable=0;points=[];" vertex="1" connectable="0" parent="aRcXMA_YCSUUPR6hCGXh-180">
          <mxGeometry x="0.2507" y="-1" relative="1" as="geometry">
            <mxPoint as="offset" />
          </mxGeometry>
        </mxCell>
        <mxCell id="aRcXMA_YCSUUPR6hCGXh-128" value="EPPStagesManagerService" style="shape=module;align=left;spacingLeft=20;align=center;verticalAlign=top;" vertex="1" parent="1">
          <mxGeometry x="1053.5" y="1750" width="203.5" height="50" as="geometry" />
        </mxCell>
        <mxCell id="aRcXMA_YCSUUPR6hCGXh-132" value="" style="group" vertex="1" connectable="0" parent="1">
          <mxGeometry x="1060" y="1114.47" width="569" height="315.53" as="geometry" />
        </mxCell>
        <mxCell id="aRcXMA_YCSUUPR6hCGXh-45" value="EventProcessingPipelineService" style="shape=module;align=left;spacingLeft=20;align=center;verticalAlign=top;" vertex="1" parent="aRcXMA_YCSUUPR6hCGXh-132">
          <mxGeometry width="530" height="265.53" as="geometry" />
        </mxCell>
        <mxCell id="aRcXMA_YCSUUPR6hCGXh-87" value="" style="group" vertex="1" connectable="0" parent="aRcXMA_YCSUUPR6hCGXh-132">
          <mxGeometry x="20" y="35.52999999999997" width="489.07" height="200" as="geometry" />
        </mxCell>
        <mxCell id="aRcXMA_YCSUUPR6hCGXh-70" value="«abstract»&#xa;AbstractEPPStage" style="swimlane;fontStyle=0;childLayout=stackLayout;horizontal=1;startSize=26;fillColor=none;horizontalStack=0;resizeParent=1;resizeParentMax=0;resizeLast=0;collapsible=1;marginBottom=0;" vertex="1" parent="aRcXMA_YCSUUPR6hCGXh-87">
          <mxGeometry x="148.45" width="171.55" height="90.3298969072165" as="geometry" />
        </mxCell>
        <mxCell id="aRcXMA_YCSUUPR6hCGXh-71" value="+ field: stages: AbstractEPPStages" style="text;strokeColor=none;fillColor=none;align=left;verticalAlign=top;spacingLeft=4;spacingRight=4;overflow=hidden;rotatable=0;points=[[0,0.5],[1,0.5]];portConstraint=eastwest;" vertex="1" parent="aRcXMA_YCSUUPR6hCGXh-70">
          <mxGeometry y="26" width="171.55" height="21.443298969072167" as="geometry" />
        </mxCell>
        <mxCell id="aRcXMA_YCSUUPR6hCGXh-72" value="+ abstract method: execSelf" style="text;strokeColor=none;fillColor=none;align=left;verticalAlign=top;spacingLeft=4;spacingRight=4;overflow=hidden;rotatable=0;points=[[0,0.5],[1,0.5]];portConstraint=eastwest;" vertex="1" parent="aRcXMA_YCSUUPR6hCGXh-70">
          <mxGeometry y="47.44329896907217" width="171.55" height="21.443298969072167" as="geometry" />
        </mxCell>
        <mxCell id="aRcXMA_YCSUUPR6hCGXh-73" value="+ method: execute" style="text;strokeColor=none;fillColor=none;align=left;verticalAlign=top;spacingLeft=4;spacingRight=4;overflow=hidden;rotatable=0;points=[[0,0.5],[1,0.5]];portConstraint=eastwest;" vertex="1" parent="aRcXMA_YCSUUPR6hCGXh-70">
          <mxGeometry y="68.88659793814433" width="171.55" height="21.443298969072167" as="geometry" />
        </mxCell>
        <mxCell id="aRcXMA_YCSUUPR6hCGXh-74" style="edgeStyle=orthogonalEdgeStyle;rounded=0;orthogonalLoop=1;jettySize=auto;html=1;entryX=1;entryY=0.5;entryDx=0;entryDy=0;" edge="1" parent="aRcXMA_YCSUUPR6hCGXh-70" source="aRcXMA_YCSUUPR6hCGXh-73" target="aRcXMA_YCSUUPR6hCGXh-73">
          <mxGeometry relative="1" as="geometry" />
        </mxCell>
        <mxCell id="aRcXMA_YCSUUPR6hCGXh-75" value="implements" style="edgeLabel;html=1;align=center;verticalAlign=middle;resizable=0;points=[];" vertex="1" connectable="0" parent="aRcXMA_YCSUUPR6hCGXh-87">
          <mxGeometry x="78.48762507026444" y="131.95876288659792" as="geometry" />
        </mxCell>
        <mxCell id="aRcXMA_YCSUUPR6hCGXh-76" style="edgeStyle=orthogonalEdgeStyle;rounded=0;orthogonalLoop=1;jettySize=auto;html=1;endArrow=block;endFill=0;" edge="1" parent="aRcXMA_YCSUUPR6hCGXh-87" source="aRcXMA_YCSUUPR6hCGXh-77" target="aRcXMA_YCSUUPR6hCGXh-70">
          <mxGeometry relative="1" as="geometry">
            <Array as="points">
              <mxPoint x="78.35016863406409" y="123.71134020618557" />
              <mxPoint x="226.8031197301855" y="123.71134020618557" />
            </Array>
          </mxGeometry>
        </mxCell>
        <mxCell id="aRcXMA_YCSUUPR6hCGXh-77" value="ExampleEPPSource" style="swimlane;fontStyle=0;childLayout=stackLayout;horizontal=1;startSize=26;fillColor=none;horizontalStack=0;resizeParent=1;resizeParentMax=0;resizeLast=0;collapsible=1;marginBottom=0;" vertex="1" parent="aRcXMA_YCSUUPR6hCGXh-87">
          <mxGeometry y="157.11340206185568" width="156.70033726812818" height="47.44329896907217" as="geometry" />
        </mxCell>
        <mxCell id="aRcXMA_YCSUUPR6hCGXh-78" value="+ method: execute" style="text;strokeColor=none;fillColor=none;align=left;verticalAlign=top;spacingLeft=4;spacingRight=4;overflow=hidden;rotatable=0;points=[[0,0.5],[1,0.5]];portConstraint=eastwest;" vertex="1" parent="aRcXMA_YCSUUPR6hCGXh-77">
          <mxGeometry y="26" width="156.70033726812818" height="21.443298969072167" as="geometry" />
        </mxCell>
        <mxCell id="aRcXMA_YCSUUPR6hCGXh-79" value="implements" style="edgeLabel;html=1;align=center;verticalAlign=middle;resizable=0;points=[];" vertex="1" connectable="0" parent="aRcXMA_YCSUUPR6hCGXh-87">
          <mxGeometry x="243.297892074199" y="133.19587628865978" as="geometry" />
        </mxCell>
        <mxCell id="aRcXMA_YCSUUPR6hCGXh-80" style="edgeStyle=orthogonalEdgeStyle;rounded=0;orthogonalLoop=1;jettySize=auto;html=1;endArrow=block;endFill=0;" edge="1" parent="aRcXMA_YCSUUPR6hCGXh-87" source="aRcXMA_YCSUUPR6hCGXh-81" target="aRcXMA_YCSUUPR6hCGXh-70">
          <mxGeometry relative="1" as="geometry">
            <Array as="points">
              <mxPoint x="243.297892074199" y="123.71134020618557" />
              <mxPoint x="226.8031197301855" y="123.71134020618557" />
            </Array>
          </mxGeometry>
        </mxCell>
        <mxCell id="aRcXMA_YCSUUPR6hCGXh-81" value="ExampleEPPStage" style="swimlane;fontStyle=0;childLayout=stackLayout;horizontal=1;startSize=26;fillColor=none;horizontalStack=0;resizeParent=1;resizeParentMax=0;resizeLast=0;collapsible=1;marginBottom=0;" vertex="1" parent="aRcXMA_YCSUUPR6hCGXh-87">
          <mxGeometry x="164.94772344013492" y="157.11340206185568" width="156.70033726812818" height="47.44329896907217" as="geometry" />
        </mxCell>
        <mxCell id="aRcXMA_YCSUUPR6hCGXh-82" value="+ method: execute" style="text;strokeColor=none;fillColor=none;align=left;verticalAlign=top;spacingLeft=4;spacingRight=4;overflow=hidden;rotatable=0;points=[[0,0.5],[1,0.5]];portConstraint=eastwest;" vertex="1" parent="aRcXMA_YCSUUPR6hCGXh-81">
          <mxGeometry y="26" width="156.70033726812818" height="21.443298969072167" as="geometry" />
        </mxCell>
        <mxCell id="aRcXMA_YCSUUPR6hCGXh-83" value="implements" style="edgeLabel;html=1;align=center;verticalAlign=middle;resizable=0;points=[];" vertex="1" connectable="0" parent="aRcXMA_YCSUUPR6hCGXh-87">
          <mxGeometry x="410.71983136593593" y="132.37113402061854" as="geometry" />
        </mxCell>
        <mxCell id="aRcXMA_YCSUUPR6hCGXh-84" style="edgeStyle=orthogonalEdgeStyle;rounded=0;orthogonalLoop=1;jettySize=auto;html=1;endArrow=block;endFill=0;" edge="1" parent="aRcXMA_YCSUUPR6hCGXh-87" source="aRcXMA_YCSUUPR6hCGXh-85" target="aRcXMA_YCSUUPR6hCGXh-70">
          <mxGeometry relative="1" as="geometry">
            <Array as="points">
              <mxPoint x="410.71983136593593" y="123.71134020618557" />
              <mxPoint x="226.8031197301855" y="123.71134020618557" />
            </Array>
          </mxGeometry>
        </mxCell>
        <mxCell id="aRcXMA_YCSUUPR6hCGXh-85" value="ExampleEPPSink" style="swimlane;fontStyle=0;childLayout=stackLayout;horizontal=1;startSize=26;fillColor=none;horizontalStack=0;resizeParent=1;resizeParentMax=0;resizeLast=0;collapsible=1;marginBottom=0;" vertex="1" parent="aRcXMA_YCSUUPR6hCGXh-87">
          <mxGeometry x="332.36966273187187" y="157.11340206185568" width="156.70033726812818" height="47.44329896907217" as="geometry" />
        </mxCell>
        <mxCell id="aRcXMA_YCSUUPR6hCGXh-86" value="+ method: execute" style="text;strokeColor=none;fillColor=none;align=left;verticalAlign=top;spacingLeft=4;spacingRight=4;overflow=hidden;rotatable=0;points=[[0,0.5],[1,0.5]];portConstraint=eastwest;" vertex="1" parent="aRcXMA_YCSUUPR6hCGXh-85">
          <mxGeometry y="26" width="156.70033726812818" height="21.443298969072167" as="geometry" />
        </mxCell>
        <mxCell id="aRcXMA_YCSUUPR6hCGXh-140" value="" style="shape=cylinder3;whiteSpace=wrap;html=1;boundedLbl=1;backgroundOutline=1;size=15;" vertex="1" parent="aRcXMA_YCSUUPR6hCGXh-132">
          <mxGeometry x="509" y="235.52999999999997" width="60" height="80" as="geometry" />
        </mxCell>
        <mxCell id="aRcXMA_YCSUUPR6hCGXh-182" style="edgeStyle=orthogonalEdgeStyle;rounded=0;orthogonalLoop=1;jettySize=auto;html=1;dashed=1;startArrow=none;startFill=0;endArrow=classic;endFill=1;strokeWidth=1;elbow=vertical;entryX=1;entryY=0.25;entryDx=0;entryDy=0;" edge="1" parent="1" source="aRcXMA_YCSUUPR6hCGXh-141" target="aRcXMA_YCSUUPR6hCGXh-107">
          <mxGeometry relative="1" as="geometry">
            <Array as="points">
              <mxPoint x="1495" y="1627" />
            </Array>
          </mxGeometry>
        </mxCell>
        <mxCell id="aRcXMA_YCSUUPR6hCGXh-183" value="register" style="edgeLabel;html=1;align=center;verticalAlign=middle;resizable=0;points=[];" vertex="1" connectable="0" parent="aRcXMA_YCSUUPR6hCGXh-182">
          <mxGeometry x="-0.1628" y="-1" relative="1" as="geometry">
            <mxPoint as="offset" />
          </mxGeometry>
        </mxCell>
        <mxCell id="aRcXMA_YCSUUPR6hCGXh-141" value="EPPSinksManagerService" style="shape=module;align=left;spacingLeft=20;align=center;verticalAlign=top;" vertex="1" parent="1">
          <mxGeometry x="1420" y="1750" width="170" height="50" as="geometry" />
        </mxCell>
        <mxCell id="aRcXMA_YCSUUPR6hCGXh-163" style="edgeStyle=orthogonalEdgeStyle;rounded=0;orthogonalLoop=1;jettySize=auto;html=1;dashed=1;startArrow=none;startFill=0;endArrow=classic;endFill=1;strokeWidth=1;elbow=vertical;" edge="1" parent="1" source="aRcXMA_YCSUUPR6hCGXh-148" target="aRcXMA_YCSUUPR6hCGXh-128">
          <mxGeometry relative="1" as="geometry">
            <Array as="points">
              <mxPoint x="919" y="1860" />
              <mxPoint x="1155" y="1860" />
            </Array>
          </mxGeometry>
        </mxCell>
        <mxCell id="aRcXMA_YCSUUPR6hCGXh-164" value="register" style="edgeLabel;html=1;align=center;verticalAlign=middle;resizable=0;points=[];" vertex="1" connectable="0" parent="aRcXMA_YCSUUPR6hCGXh-163">
          <mxGeometry x="-0.2718" y="1" relative="1" as="geometry">
            <mxPoint y="1" as="offset" />
          </mxGeometry>
        </mxCell>
        <mxCell id="aRcXMA_YCSUUPR6hCGXh-171" style="edgeStyle=orthogonalEdgeStyle;rounded=0;orthogonalLoop=1;jettySize=auto;html=1;dashed=1;startArrow=none;startFill=0;endArrow=classic;endFill=1;strokeWidth=1;elbow=vertical;" edge="1" parent="1" source="aRcXMA_YCSUUPR6hCGXh-148" target="aRcXMA_YCSUUPR6hCGXh-149">
          <mxGeometry relative="1" as="geometry" />
        </mxCell>
        <mxCell id="aRcXMA_YCSUUPR6hCGXh-172" value="send event" style="edgeLabel;html=1;align=center;verticalAlign=middle;resizable=0;points=[];" vertex="1" connectable="0" parent="aRcXMA_YCSUUPR6hCGXh-171">
          <mxGeometry x="-0.2527" y="-1" relative="1" as="geometry">
            <mxPoint as="offset" />
          </mxGeometry>
        </mxCell>
        <mxCell id="aRcXMA_YCSUUPR6hCGXh-148" value="EPPStage1" style="shape=module;align=left;spacingLeft=20;align=center;verticalAlign=top;" vertex="1" parent="1">
          <mxGeometry x="806" y="1920" width="150" height="50" as="geometry" />
        </mxCell>
        <mxCell id="aRcXMA_YCSUUPR6hCGXh-165" style="edgeStyle=orthogonalEdgeStyle;rounded=0;orthogonalLoop=1;jettySize=auto;html=1;dashed=1;startArrow=none;startFill=0;endArrow=classic;endFill=1;strokeWidth=1;elbow=vertical;" edge="1" parent="1" source="aRcXMA_YCSUUPR6hCGXh-149" target="aRcXMA_YCSUUPR6hCGXh-128">
          <mxGeometry relative="1" as="geometry">
            <mxPoint x="1140" y="1840" as="targetPoint" />
            <Array as="points">
              <mxPoint x="1155" y="1870" />
              <mxPoint x="1155" y="1870" />
            </Array>
          </mxGeometry>
        </mxCell>
        <mxCell id="aRcXMA_YCSUUPR6hCGXh-166" value="register" style="edgeLabel;html=1;align=center;verticalAlign=middle;resizable=0;points=[];" vertex="1" connectable="0" parent="aRcXMA_YCSUUPR6hCGXh-165">
          <mxGeometry x="-0.3255" y="-2" relative="1" as="geometry">
            <mxPoint y="21" as="offset" />
          </mxGeometry>
        </mxCell>
        <mxCell id="aRcXMA_YCSUUPR6hCGXh-173" style="edgeStyle=orthogonalEdgeStyle;rounded=0;orthogonalLoop=1;jettySize=auto;html=1;dashed=1;startArrow=none;startFill=0;endArrow=classic;endFill=1;strokeWidth=1;elbow=vertical;" edge="1" parent="1" source="aRcXMA_YCSUUPR6hCGXh-149" target="aRcXMA_YCSUUPR6hCGXh-150">
          <mxGeometry relative="1" as="geometry" />
        </mxCell>
        <mxCell id="aRcXMA_YCSUUPR6hCGXh-174" value="send event" style="edgeLabel;html=1;align=center;verticalAlign=middle;resizable=0;points=[];" vertex="1" connectable="0" parent="aRcXMA_YCSUUPR6hCGXh-173">
          <mxGeometry x="-0.2353" y="2" relative="1" as="geometry">
            <mxPoint as="offset" />
          </mxGeometry>
        </mxCell>
        <mxCell id="aRcXMA_YCSUUPR6hCGXh-149" value="EPPStage2" style="shape=module;align=left;spacingLeft=20;align=center;verticalAlign=top;" vertex="1" parent="1">
          <mxGeometry x="1039" y="1920" width="150" height="50" as="geometry" />
        </mxCell>
        <mxCell id="aRcXMA_YCSUUPR6hCGXh-169" style="edgeStyle=orthogonalEdgeStyle;rounded=0;orthogonalLoop=1;jettySize=auto;html=1;dashed=1;startArrow=none;startFill=0;endArrow=classic;endFill=1;strokeWidth=1;elbow=vertical;" edge="1" parent="1" source="aRcXMA_YCSUUPR6hCGXh-150" target="aRcXMA_YCSUUPR6hCGXh-128">
          <mxGeometry relative="1" as="geometry">
            <Array as="points">
              <mxPoint x="1320" y="1860" />
              <mxPoint x="1155" y="1860" />
            </Array>
          </mxGeometry>
        </mxCell>
        <mxCell id="aRcXMA_YCSUUPR6hCGXh-170" value="register" style="edgeLabel;html=1;align=center;verticalAlign=middle;resizable=0;points=[];" vertex="1" connectable="0" parent="aRcXMA_YCSUUPR6hCGXh-169">
          <mxGeometry x="0.5897" relative="1" as="geometry">
            <mxPoint x="73" as="offset" />
          </mxGeometry>
        </mxCell>
        <mxCell id="aRcXMA_YCSUUPR6hCGXh-175" style="edgeStyle=orthogonalEdgeStyle;rounded=0;orthogonalLoop=1;jettySize=auto;html=1;dashed=1;startArrow=none;startFill=0;endArrow=classic;endFill=1;strokeWidth=1;elbow=vertical;" edge="1" parent="1" source="aRcXMA_YCSUUPR6hCGXh-150" target="aRcXMA_YCSUUPR6hCGXh-128">
          <mxGeometry relative="1" as="geometry">
            <Array as="points">
              <mxPoint x="1330" y="1830" />
              <mxPoint x="1190" y="1830" />
            </Array>
          </mxGeometry>
        </mxCell>
        <mxCell id="aRcXMA_YCSUUPR6hCGXh-176" value="send event" style="edgeLabel;html=1;align=center;verticalAlign=middle;resizable=0;points=[];" vertex="1" connectable="0" parent="aRcXMA_YCSUUPR6hCGXh-175">
          <mxGeometry x="-0.4231" relative="1" as="geometry">
            <mxPoint as="offset" />
          </mxGeometry>
        </mxCell>
        <mxCell id="aRcXMA_YCSUUPR6hCGXh-150" value="EPPStage3" style="shape=module;align=left;spacingLeft=20;align=center;verticalAlign=top;" vertex="1" parent="1">
          <mxGeometry x="1280" y="1920" width="150" height="50" as="geometry" />
        </mxCell>
        <mxCell id="aRcXMA_YCSUUPR6hCGXh-184" value="" style="shape=cylinder3;whiteSpace=wrap;html=1;boundedLbl=1;backgroundOutline=1;size=15;" vertex="1" parent="1">
          <mxGeometry x="804" y="1627.97" width="38" height="60" as="geometry" />
        </mxCell>
        <mxCell id="aRcXMA_YCSUUPR6hCGXh-186" value="" style="shape=cylinder3;whiteSpace=wrap;html=1;boundedLbl=1;backgroundOutline=1;size=15;" vertex="1" parent="1">
          <mxGeometry x="909" y="1950" width="38" height="60" as="geometry" />
        </mxCell>
        <mxCell id="aRcXMA_YCSUUPR6hCGXh-187" value="" style="shape=cylinder3;whiteSpace=wrap;html=1;boundedLbl=1;backgroundOutline=1;size=15;" vertex="1" parent="1">
          <mxGeometry x="1144" y="1950" width="38" height="60" as="geometry" />
        </mxCell>
        <mxCell id="aRcXMA_YCSUUPR6hCGXh-188" value="" style="shape=cylinder3;whiteSpace=wrap;html=1;boundedLbl=1;backgroundOutline=1;size=15;" vertex="1" parent="1">
          <mxGeometry x="1382" y="1950" width="38" height="60" as="geometry" />
        </mxCell>
      </root>
    </mxGraphModel>
  </diagram>
</mxfile>
